<svg id="full_screen" data-name="full screen" xmlns="http://www.w3.org/2000/svg" width="9.355" height="8.846" viewBox="0 0 9.355 8.846">
  <g id="noun_maximise_3389437">
    <path id="Path_258" data-name="Path 258" d="M13.658-6.156a.406.406,0,0,1,0,.581.4.4,0,0,1-.285.122.426.426,0,0,1-.3-.122L10.866-7.787v1.05a.409.409,0,0,1-.408.408.409.409,0,0,1-.408-.408V-8.776a.409.409,0,0,1,.122-.285.454.454,0,0,1,.3-.122h2.039a.409.409,0,0,1,.408.408.409.409,0,0,1-.408.408h-1.05ZM10.448-.4h2.039a.409.409,0,0,0,.408-.408.409.409,0,0,0-.408-.408h-1.05L13.7-3.477a.394.394,0,0,0,0-.571.4.4,0,0,0-.571,0L10.866-1.785v-1.05a.418.418,0,0,0-.408-.418.409.409,0,0,0-.408.408V-.806a.386.386,0,0,0,.122.285A.364.364,0,0,0,10.448-.4Zm8.56-2.823a.4.4,0,0,0-.4.408v1.05L16.358-4.017a.425.425,0,0,0-.581,0,.382.382,0,0,0,0,.561l2.242,2.232H16.98v.01a.441.441,0,0,0-.418.418.409.409,0,0,0,.408.408h2.039a.4.4,0,0,0,.285-.122A.392.392,0,0,0,19.405-.8V-2.835A.389.389,0,0,0,19.008-3.222Zm-.02-6.012H16.949a.409.409,0,0,0-.408.408.409.409,0,0,0,.408.408H18L15.777-6.176a.406.406,0,0,0,0,.581.408.408,0,0,0,.3.122.45.45,0,0,0,.306-.122L18.61-7.807v1.05A.367.367,0,0,0,19-6.38h-.01a.392.392,0,0,0,.408-.387V-8.8a.431.431,0,0,0-.122-.306A.379.379,0,0,0,18.987-9.234Z" transform="translate(-10.05 9.234)" fill="#8f9bb9"/>
  </g>
</svg>
