<svg xmlns="http://www.w3.org/2000/svg" width="12.578" height="12.578" viewBox="0 0 12.578 12.578">
  <g id="smily" transform="translate(0.15 0.15)">
    <g id="noun_Smile_169431" transform="translate(0 0)">
      <path id="Path_40" data-name="Path 40" d="M31.648,32.5a.648.648,0,1,0,.648.648A.653.653,0,0,0,31.648,32.5Z" transform="translate(-27.453 -28.748)" fill="#8f9bb9" stroke="#8f9bb9" stroke-width="0.3"/>
      <path id="Path_41" data-name="Path 41" d="M60.148,32.5a.648.648,0,1,0,.648.648A.653.653,0,0,0,60.148,32.5Z" transform="translate(-52.065 -28.748)" fill="#8f9bb9" stroke="#8f9bb9" stroke-width="0.3"/>
      <path id="Path_42" data-name="Path 42" d="M11.139,5a6.139,6.139,0,1,0,6.139,6.139A6.144,6.144,0,0,0,11.139,5Zm0,.75A5.389,5.389,0,1,1,5.75,11.139,5.379,5.379,0,0,1,11.139,5.75Z" transform="translate(-5 -5)" fill="#8f9bb9" stroke="#8f9bb9" stroke-width="0.3"/>
      <path id="Path_43" data-name="Path 43" d="M33.827,60.514a.372.372,0,0,0-.3-.61.417.417,0,0,0-.315.2,2.874,2.874,0,0,1-4.638,0,.417.417,0,0,0-.315-.2.372.372,0,0,0-.3.61,3.6,3.6,0,0,0,5.875,0Z" transform="translate(-24.751 -52.414)" fill="#8f9bb9" stroke="#8f9bb9" stroke-width="0.3"/>
    </g>
  </g>
</svg>
