<svg id="arrow-drop-down-line" xmlns="http://www.w3.org/2000/svg" width="21.23" height="21.229" viewBox="0 0 21.23 21.229">
  <path id="Path_51" data-name="Path 51" d="M0,0H21.23V21.23H0Z" fill="none"/>
  <path id="Icon_weather-time-8" data-name="Icon weather-time-8" d="M4.488,12.7a8.683,8.683,0,0,1,1.2-4.451A8.848,8.848,0,0,1,8.915,5.015a8.838,8.838,0,0,1,7.872-.488,8.934,8.934,0,0,1,2.823,1.887A8.671,8.671,0,0,1,21.5,9.246a8.794,8.794,0,0,1-4.711,11.592,8.826,8.826,0,0,1-6.889,0,8.714,8.714,0,0,1-4.718-4.7A8.522,8.522,0,0,1,4.488,12.7Zm1.95,0a6.683,6.683,0,0,0,2.037,4.86A6.642,6.642,0,0,0,13.351,19.6a6.686,6.686,0,0,0,3.452-.928,6.977,6.977,0,0,0,2.524-2.517,6.85,6.85,0,0,0,0-6.913A6.938,6.938,0,0,0,16.8,6.714a6.886,6.886,0,0,0-6.9,0A7.081,7.081,0,0,0,7.366,9.239,6.659,6.659,0,0,0,6.438,12.7Zm3.106,1.644a.671.671,0,0,1,.3-.4L12.667,12.3V7.461a.653.653,0,1,1,1.305,0v5.245a.642.642,0,0,1-.134.393.6.6,0,0,1-.33.228l-3.02,1.754a.556.556,0,0,1-.322.094.612.612,0,0,1-.566-.33A.7.7,0,0,1,9.545,14.342Z" transform="translate(-2.728 -2.738)" fill="#bac2c7"/>
</svg>
