<svg xmlns="http://www.w3.org/2000/svg" width="9.483" height="8.298" viewBox="0 0 9.483 8.298">
  <path id="camera" d="M9.483,2.928V8.262a.889.889,0,0,1-.889.889H.889A.889.889,0,0,1,0,8.262V2.928a.889.889,0,0,1,.889-.889H2.52l.228-.609A.888.888,0,0,1,3.579.854H5.9a.888.888,0,0,1,.832.576l.229.609H8.6A.889.889,0,0,1,9.483,2.928ZM6.964,5.6A2.223,2.223,0,1,0,4.742,7.818,2.223,2.223,0,0,0,6.964,5.6Zm-.593,0A1.631,1.631,0,1,1,4.74,3.964,1.631,1.631,0,0,1,6.371,5.6Z" transform="translate(0 -0.854)" fill="#a8a8a8"/>
</svg>
