<svg xmlns="http://www.w3.org/2000/svg" width="9.484" height="9.484" viewBox="0 0 9.484 9.484">
  <path id="copy_link" data-name="copy link" d="M4.062,5.916a.493.493,0,0,1-.349-.145,2.317,2.317,0,0,1,0-3.273L5.534.678A2.314,2.314,0,1,1,8.806,3.95l-.833.834a.493.493,0,1,1-.7-.7l.832-.832A1.328,1.328,0,1,0,6.231,1.377L4.41,3.2a1.328,1.328,0,0,0,0,1.878.493.493,0,0,1-.349.842ZM2.315,9.484A2.314,2.314,0,0,1,.678,5.534L1.51,4.7a.493.493,0,0,1,.7.7l-.832.833A1.328,1.328,0,1,0,3.253,8.109L5.074,6.288a1.328,1.328,0,0,0,0-1.878.493.493,0,1,1,.7-.7,2.317,2.317,0,0,1,0,3.273L3.951,8.807A2.3,2.3,0,0,1,2.315,9.484Z" transform="translate(0 9.484) rotate(-90)" fill="#a8a8a8"/>
</svg>
