<svg id="video_call" data-name="video call" xmlns="http://www.w3.org/2000/svg" width="10.62" height="6.069" viewBox="0 0 10.62 6.069">
  <path id="Path_564" data-name="Path 564" d="M11.721,4.1a.405.405,0,0,0-.22.064L9.45,5.456a.2.2,0,0,0-.095.171v1.8A.2.2,0,0,0,9.45,7.6L11.5,8.893a.426.426,0,0,0,.22.064h.493a.2.2,0,0,0,.2-.2V4.3a.2.2,0,0,0-.2-.2Z" transform="translate(-1.798 -3.49)" fill="#fff"/>
  <path id="Path_565" data-name="Path 565" d="M6.579,9.483h-4.5A1.225,1.225,0,0,1,.854,8.265V4.632A1.223,1.223,0,0,1,2.072,3.414h4.5A1.223,1.223,0,0,1,7.795,4.632v3.63A1.22,1.22,0,0,1,6.579,9.483Z" transform="translate(-0.854 -3.414)" fill="#fff"/>
</svg>
