<svg id="whatsapp-_chat_-send" data-name="whatsapp- chat -send" xmlns="http://www.w3.org/2000/svg" width="20.484" height="20.484" viewBox="0 0 20.484 20.484">
  <circle id="Ellipse_157" data-name="Ellipse 157" cx="10.242" cy="10.242" r="10.242" fill="#018a7c"/>
  <path id="Icon_ionic-ios-send" data-name="Icon ionic-ios-send" d="M8.436.02.11,3.65A.19.19,0,0,0,.117,4L2.369,5.269a.363.363,0,0,0,.415-.041L7.225,1.4c.03-.025.1-.072.127-.046s-.016.1-.041.127L3.469,5.809a.362.362,0,0,0-.038.433L4.9,8.6a.19.19,0,0,0,.345,0L8.692.272A.19.19,0,0,0,8.436.02Z" transform="translate(9.191 4.116) rotate(45)" fill="#fff"/>
</svg>
