<svg xmlns="http://www.w3.org/2000/svg" width="19.999" height="20" viewBox="0 0 19.999 20">
  <g id="close" transform="translate(-23.273 -23.272)">
    <path id="Path_157" data-name="Path 157" d="M39.333,39.333a8.572,8.572,0,1,1,2.51-6.061,8.514,8.514,0,0,1-2.51,6.061M33.272,23.272A10,10,0,1,0,40.344,26.2a9.968,9.968,0,0,0-7.071-2.929m3.2,6.8a.714.714,0,0,0-1.01,0l-2.19,2.189-2.189-2.189a.714.714,0,1,0-1.011,1.01l2.189,2.189-2.189,2.189a.715.715,0,0,0,1.01,1.01l2.189-2.19,2.189,2.189a.714.714,0,1,0,1.01-1.01l-2.19-2.188,2.189-2.189a.714.714,0,0,0,0-1.01" transform="translate(0 0)" fill="#5c6479"/>
  </g>
</svg>
