<svg xmlns="http://www.w3.org/2000/svg" width="25.47" height="25.47" viewBox="0 0 25.47 25.47">
  <g id="Group_2030" data-name="Group 2030" transform="translate(-617 -694)">
    <rect id="Rectangle_520" data-name="Rectangle 520" width="25.47" height="25.47" rx="12.735" transform="translate(617 694)" fill="#fde0ec"/>
    <path id="Icon_awesome-microphone" data-name="Icon awesome-microphone" d="M4.06,8.12A2.215,2.215,0,0,0,6.275,5.906V2.215a2.215,2.215,0,1,0-4.429,0V5.906A2.215,2.215,0,0,0,4.06,8.12ZM7.751,4.429H7.382a.369.369,0,0,0-.369.369V5.906A2.956,2.956,0,0,1,3.765,8.844a3.042,3.042,0,0,1-2.658-3.07V4.8a.369.369,0,0,0-.369-.369H.369A.369.369,0,0,0,0,4.8v.926A4.187,4.187,0,0,0,3.506,9.916V10.7H2.215a.369.369,0,0,0-.369.369v.369a.369.369,0,0,0,.369.369H5.906a.369.369,0,0,0,.369-.369v-.369a.369.369,0,0,0-.369-.369H4.614V9.925A4.064,4.064,0,0,0,8.12,5.906V4.8A.369.369,0,0,0,7.751,4.429Z" transform="translate(626 701)" fill="#ff68af"/>
  </g>
</svg>
