<svg xmlns="http://www.w3.org/2000/svg" width="18.346" height="14" viewBox="0 0 18.346 14">
  <g id="human_take_over" data-name="human take over" transform="translate(-2.337 -13.7)">
    <g id="Group_1178" data-name="Group 1178" transform="translate(2.337 13.7)">
      <path id="Path_506" data-name="Path 506" d="M20.63,19.62a.763.763,0,0,0-.983-.444l-.116.039a13.31,13.31,0,0,1-2.121.6l-1-3.683a3.3,3.3,0,0,0-3.182-2.43H9.793a3.321,3.321,0,0,0-3.182,2.43l-1,3.683a12,12,0,0,1-2.121-.6l-.116-.039a.763.763,0,0,0-.54,1.427l.116.039a14.194,14.194,0,0,0,4.975.906h7.154a14.194,14.194,0,0,0,4.975-.906l.116-.039A.749.749,0,0,0,20.63,19.62Zm-12.688.4c-.27,0-.54-.019-.81-.039l.945-3.471A1.776,1.776,0,0,1,9.793,15.2h3.471a1.794,1.794,0,0,1,1.716,1.311l.945,3.471c-.27.019-.54.039-.81.039Z" transform="translate(-2.337 -13.7)" fill="#bac2c7"/>
      <path id="Path_507" data-name="Path 507" d="M28.375,59.1a2.634,2.634,0,0,0-2.43,1.639,4.021,4.021,0,0,0-1.793,0,2.623,2.623,0,1,0,.135,1.523,2.5,2.5,0,0,1,1.5,0,2.622,2.622,0,0,0,5.187-.54A2.6,2.6,0,0,0,28.375,59.1Zm-6.633,3.741a1.1,1.1,0,1,1,1.1-1.1A1.1,1.1,0,0,1,21.742,62.841Zm6.633,0a1.1,1.1,0,1,1,1.1-1.1A1.1,1.1,0,0,1,28.375,62.841Z" transform="translate(-15.868 -50.345)" fill="#bac2c7"/>
    </g>
  </g>
</svg>
