<svg xmlns="http://www.w3.org/2000/svg" width="36.764" height="31.107" viewBox="0 0 36.764 31.107">
  <path id="attach" d="M23.182,964.362A10.811,10.811,0,0,1,33.9,973.4a8.87,8.87,0,0,1-1.427,17.627H28.031a.808.808,0,0,1,0-1.616h4.445a7.276,7.276,0,0,0,.669-14.521.808.808,0,0,1-.732-.707,9.289,9.289,0,1,0-18.447,2.2.808.808,0,0,1-.808.909h-.48a6.061,6.061,0,0,0,0,12.122h5.657a.808.808,0,1,1,0,1.616H12.677a7.661,7.661,0,0,1-.328-15.316,10.8,10.8,0,0,1,10.834-11.351Zm0,14.546a.877.877,0,0,1,.543.2l4.445,4.041a.831.831,0,0,1,.063,1.149.846.846,0,0,1-1.149.05l-3.093-2.816v12.728a.808.808,0,1,1-1.616,0V981.534l-3.093,2.816a.861.861,0,0,1-1.149-.05.821.821,0,0,1,.063-1.149l4.445-4.041A.7.7,0,0,1,23.182,978.908Z" transform="translate(-4.8 -964.162)" fill="#bac2c7" stroke="#bac2c7" stroke-width="0.4"/>
</svg>
