<svg xmlns="http://www.w3.org/2000/svg" width="25.47" height="25.47" viewBox="0 0 25.47 25.47">
  <g id="Group_2031" data-name="Group 2031" transform="translate(-617 -694)">
    <rect id="Rectangle_520" data-name="Rectangle 520" width="25.47" height="25.47" rx="6" transform="translate(617 694)" fill="#9361e3"/>
    <g id="noun_send_3556019" transform="translate(606.121 683.032)">
      <path id="Path_5583" data-name="Path 5583" d="M28.434,18.485a1.86,1.86,0,0,0-1.934-.4L19.165,20.53a1.858,1.858,0,0,0-.075,3.509l2.724,1.04a.123.123,0,0,1,.038.026.126.126,0,0,1,.029.045l1.04,2.731V27.9a1.865,1.865,0,0,0,1.737,1.165h.016a1.844,1.844,0,0,0,1.747-1.277l2.482-7.35A1.86,1.86,0,0,0,28.434,18.485Zm-.841,1.5-2.487,7.374a.458.458,0,0,1-.437.317h0a.478.478,0,0,1-.445-.3l-1.019-2.645L25.1,22.826l-.981-.981-1.894,1.9-2.645-1.009a.468.468,0,0,1-.307-.452.458.458,0,0,1,.322-.437l7.376-2.461a.473.473,0,0,1,.624.6Z" fill="#fff"/>
    </g>
  </g>
</svg>
