<svg id="Participants-icon" xmlns="http://www.w3.org/2000/svg" width="25" height="21.599" viewBox="0 0 25 21.599">
  <g id="noun_users_1977590" transform="translate(0 0)">
    <path id="Path_62" data-name="Path 62" d="M20.636,15.792a4.97,4.97,0,0,0-4.455,7.084,4.908,4.908,0,0,0,8.934,0A4.961,4.961,0,0,0,20.636,15.792ZM12.455,35.438a.6.6,0,0,1-.554-.662h0a8.865,8.865,0,0,1,1.269-4.581H8.747a.594.594,0,0,1-.6-.652,6.955,6.955,0,0,1,4.515-6.519,4.914,4.914,0,0,1,2.362-9.18,4.8,4.8,0,0,1,3.228,1.244,6.135,6.135,0,0,1,4.788,0,4.854,4.854,0,0,1,8.083,3.656,4.918,4.918,0,0,1-2.492,4.28A6.944,6.944,0,0,1,33.149,29.6a.6.6,0,0,1-.6.6H28.105a9.325,9.325,0,0,1,1.3,4.651.6.6,0,0,1-.6.6ZM14.029,29a8.762,8.762,0,0,1,3.992-2.65A6.157,6.157,0,0,1,15.3,23.8,5.7,5.7,0,0,0,9.367,29Zm9.239-2.643A8.742,8.742,0,0,1,27.243,29h4.69A5.7,5.7,0,0,0,26,23.8,6.178,6.178,0,0,1,23.268,26.36Zm4.9,7.89A7.543,7.543,0,0,0,15.3,29.374a7.731,7.731,0,0,0-2.191,4.876ZM26.553,22.441a3.723,3.723,0,0,0,2.31-6.323,3.636,3.636,0,0,0-4.7-.407A6.2,6.2,0,0,1,26.553,22.441Zm-9.411-6.73a3.693,3.693,0,1,0-2.394,6.73A6.205,6.205,0,0,1,17.141,15.711Z" transform="translate(-8.149 -13.842)" fill="#bac2c7"/>
    <path id="Path_63" data-name="Path 63" d="M45.107,40.259a.6.6,0,0,1,1.059.543,3.057,3.057,0,0,1-5.44,0,.593.593,0,0,1,1.055-.543A1.867,1.867,0,0,0,45.107,40.259Z" transform="translate(-30.944 -32.143)" fill="#bac2c7"/>
  </g>
</svg>
