<svg id="state-icon" xmlns="http://www.w3.org/2000/svg" width="30" height="30.86" viewBox="0 0 30 30.86">
  <g id="noun_bulb_2378824" transform="translate(0 0)">
    <g id="Group_1295" data-name="Group 1295" transform="translate(0 0)">
      <g id="Group_1294" data-name="Group 1294">
        <g id="Group_1293" data-name="Group 1293">
          <g id="Group_1261" data-name="Group 1261" transform="translate(14.57)">
            <g id="Group_1260" data-name="Group 1260">
              <g id="Group_1257" data-name="Group 1257">
                <path id="Path_519" data-name="Path 519" d="M249.948,17.287a.643.643,0,1,1,.455-.188A.648.648,0,0,1,249.948,17.287Z" transform="translate(-249.305 -16.001)" fill="#bac2c7"/>
              </g>
              <g id="Group_1258" data-name="Group 1258" transform="translate(0 1.929)">
                <path id="Path_520" data-name="Path 520" d="M249.948,47.287a.643.643,0,1,1,.455-.188A.648.648,0,0,1,249.948,47.287Z" transform="translate(-249.305 -46.001)" fill="#bac2c7"/>
              </g>
              <g id="Group_1259" data-name="Group 1259" transform="translate(0 3.858)">
                <path id="Path_521" data-name="Path 521" d="M249.948,77.287a.643.643,0,1,1,.455-.188A.648.648,0,0,1,249.948,77.287Z" transform="translate(-249.305 -76.001)" fill="#bac2c7"/>
              </g>
            </g>
          </g>
          <g id="Group_1265" data-name="Group 1265" transform="translate(21.938 4.049)">
            <g id="Group_1262" data-name="Group 1262" transform="translate(2.728)">
              <path id="Path_522" data-name="Path 522" d="M406.979,80.258a.643.643,0,1,1,.454-.188A.646.646,0,0,1,406.979,80.258Z" transform="translate(-406.336 -78.972)" fill="#bac2c7"/>
            </g>
            <g id="Group_1263" data-name="Group 1263" transform="translate(1.364 1.364)">
              <path id="Path_523" data-name="Path 523" d="M385.758,101.468a.642.642,0,1,1,.455-.188A.648.648,0,0,1,385.758,101.468Z" transform="translate(-385.115 -100.182)" fill="#bac2c7"/>
            </g>
            <g id="Group_1264" data-name="Group 1264" transform="translate(0 2.728)">
              <path id="Path_524" data-name="Path 524" d="M364.547,122.687A.643.643,0,1,1,365,122.5.648.648,0,0,1,364.547,122.687Z" transform="translate(-363.904 -121.401)" fill="#bac2c7"/>
            </g>
          </g>
          <g id="Group_1269" data-name="Group 1269" transform="translate(4.049 20.87)">
            <g id="Group_1266" data-name="Group 1266" transform="translate(2.728 0)">
              <path id="Path_525" data-name="Path 525" d="M128.738,341.888a.643.643,0,1,1,.455-.188A.647.647,0,0,1,128.738,341.888Z" transform="translate(-128.095 -340.602)" fill="#bac2c7"/>
            </g>
            <g id="Group_1267" data-name="Group 1267" transform="translate(1.364 1.364)">
              <path id="Path_526" data-name="Path 526" d="M107.518,363.1a.642.642,0,1,1,.455-.188A.647.647,0,0,1,107.518,363.1Z" transform="translate(-106.875 -361.812)" fill="#bac2c7"/>
            </g>
            <g id="Group_1268" data-name="Group 1268" transform="translate(0 2.728)">
              <path id="Path_527" data-name="Path 527" d="M86.308,384.317a.643.643,0,1,1,.455-.188A.648.648,0,0,1,86.308,384.317Z" transform="translate(-85.665 -383.031)" fill="#bac2c7"/>
            </g>
          </g>
          <g id="Group_1273" data-name="Group 1273" transform="translate(24.857 13.823)">
            <g id="Group_1270" data-name="Group 1270" transform="translate(3.858)">
              <path id="Path_528" data-name="Path 528" d="M469.948,232.287a.643.643,0,1,1,.455-.188A.648.648,0,0,1,469.948,232.287Z" transform="translate(-469.305 -231.001)" fill="#bac2c7"/>
            </g>
            <g id="Group_1271" data-name="Group 1271" transform="translate(1.929)">
              <path id="Path_529" data-name="Path 529" d="M439.948,232.287a.643.643,0,1,1,.455-.188A.648.648,0,0,1,439.948,232.287Z" transform="translate(-439.305 -231.001)" fill="#bac2c7"/>
            </g>
            <g id="Group_1272" data-name="Group 1272">
              <path id="Path_530" data-name="Path 530" d="M409.948,232.287a.643.643,0,1,1,.455-.188A.648.648,0,0,1,409.948,232.287Z" transform="translate(-409.305 -231.001)" fill="#bac2c7"/>
            </g>
          </g>
          <g id="Group_1277" data-name="Group 1277" transform="translate(0 13.823)">
            <g id="Group_1274" data-name="Group 1274" transform="translate(3.858)">
              <path id="Path_531" data-name="Path 531" d="M83.338,232.287a.643.643,0,1,1,.455-.188A.648.648,0,0,1,83.338,232.287Z" transform="translate(-82.695 -231.001)" fill="#bac2c7"/>
            </g>
            <g id="Group_1275" data-name="Group 1275" transform="translate(1.929)">
              <path id="Path_532" data-name="Path 532" d="M53.338,232.287a.643.643,0,1,1,.455-.188A.647.647,0,0,1,53.338,232.287Z" transform="translate(-52.695 -231.001)" fill="#bac2c7"/>
            </g>
            <g id="Group_1276" data-name="Group 1276">
              <path id="Path_533" data-name="Path 533" d="M23.338,232.287a.643.643,0,1,1,.455-.188A.648.648,0,0,1,23.338,232.287Z" transform="translate(-22.695 -231.001)" fill="#bac2c7"/>
            </g>
          </g>
          <g id="Group_1281" data-name="Group 1281" transform="translate(4.049 4.049)">
            <g id="Group_1278" data-name="Group 1278">
              <path id="Path_534" data-name="Path 534" d="M86.308,80.258a.643.643,0,1,1,.455-.188A.648.648,0,0,1,86.308,80.258Z" transform="translate(-85.665 -78.972)" fill="#bac2c7"/>
            </g>
            <g id="Group_1279" data-name="Group 1279" transform="translate(1.364 1.364)">
              <path id="Path_535" data-name="Path 535" d="M107.518,101.468a.642.642,0,1,1,.455-.188A.649.649,0,0,1,107.518,101.468Z" transform="translate(-106.875 -100.182)" fill="#bac2c7"/>
            </g>
            <g id="Group_1280" data-name="Group 1280" transform="translate(2.728 2.728)">
              <path id="Path_536" data-name="Path 536" d="M128.738,122.687a.643.643,0,1,1,.455-.188A.647.647,0,0,1,128.738,122.687Z" transform="translate(-128.095 -121.401)" fill="#bac2c7"/>
            </g>
          </g>
          <g id="Group_1285" data-name="Group 1285" transform="translate(21.938 20.87)">
            <g id="Group_1282" data-name="Group 1282" transform="translate(0 0)">
              <path id="Path_537" data-name="Path 537" d="M364.547,341.888A.643.643,0,1,1,365,341.7.648.648,0,0,1,364.547,341.888Z" transform="translate(-363.904 -340.602)" fill="#bac2c7"/>
            </g>
            <g id="Group_1283" data-name="Group 1283" transform="translate(1.364 1.364)">
              <path id="Path_538" data-name="Path 538" d="M385.758,363.1a.642.642,0,1,1,.455-.188A.648.648,0,0,1,385.758,363.1Z" transform="translate(-385.115 -361.812)" fill="#bac2c7"/>
            </g>
            <g id="Group_1284" data-name="Group 1284" transform="translate(2.728 2.727)">
              <path id="Path_539" data-name="Path 539" d="M406.979,384.308a.643.643,0,1,1,.454-.188A.647.647,0,0,1,406.979,384.308Z" transform="translate(-406.336 -383.021)" fill="#bac2c7"/>
            </g>
          </g>
          <g id="Group_1286" data-name="Group 1286" transform="translate(6.854 5.786)">
            <path id="Path_540" data-name="Path 540" d="M140.878,125.286h-4.115a.643.643,0,1,1,0-1.286h3.472v-2.629a.643.643,0,0,1,.375-.584,7.073,7.073,0,1,0-6.626-.39.643.643,0,0,1-.67,1.1,8.358,8.358,0,1,1,8.208.278v2.871A.643.643,0,0,1,140.878,125.286Zm-6.429-.9a.643.643,0,0,1-.643-.643v-.064a.643.643,0,1,1,1.286,0v.064A.643.643,0,0,1,134.448,124.386Z" transform="translate(-129.305 -105.998)" fill="#bac2c7"/>
          </g>
          <g id="Group_1287" data-name="Group 1287" transform="translate(11.998 23.788)">
            <path id="Path_541" data-name="Path 541" d="M215.091,391.141h-5.143a.643.643,0,0,1-.643-.643v-3.858a.643.643,0,0,1,.643-.643h5.143a.643.643,0,0,1,.643.643V390.5A.643.643,0,0,1,215.091,391.141Zm-4.5-1.286h3.858v-2.572h-3.858Z" transform="translate(-209.305 -385.998)" fill="#bac2c7"/>
          </g>
          <g id="Group_1288" data-name="Group 1288" transform="translate(13.284 27.646)">
            <path id="Path_542" data-name="Path 542" d="M232.52,449.213a.643.643,0,0,1-.643-.643v-1.286h-1.286v1.286a.643.643,0,0,1-1.286,0v-1.929a.643.643,0,0,1,.643-.643h2.572a.643.643,0,0,1,.643.643v1.929A.643.643,0,0,1,232.52,449.213Z" transform="translate(-229.305 -445.998)" fill="#bac2c7"/>
          </g>
          <g id="Group_1289" data-name="Group 1289" transform="translate(10.069 25.717)">
            <path id="Path_543" data-name="Path 543" d="M188.949,417.284h-9a.643.643,0,0,1,0-1.286h9a.643.643,0,0,1,0,1.286Z" transform="translate(-179.305 -415.998)" fill="#bac2c7"/>
          </g>
          <g id="Group_1290" data-name="Group 1290" transform="translate(10.069 23.788)">
            <path id="Path_544" data-name="Path 544" d="M188.949,387.284h-9a.643.643,0,0,1,0-1.286h9a.643.643,0,0,1,0,1.286Z" transform="translate(-179.305 -385.998)" fill="#bac2c7"/>
          </g>
          <g id="Group_1291" data-name="Group 1291" transform="translate(11.355 10.287)">
            <path id="Path_545" data-name="Path 545" d="M203.163,183.713a3.858,3.858,0,1,1,3.858-3.858A3.862,3.862,0,0,1,203.163,183.713Zm0-6.429a2.572,2.572,0,1,0,2.572,2.572A2.575,2.575,0,0,0,203.163,177.284Z" transform="translate(-199.305 -175.998)" fill="#bac2c7"/>
          </g>
          <g id="Group_1292" data-name="Group 1292" transform="translate(14.57 13.501)">
            <path id="Path_546" data-name="Path 546" d="M249.948,237.571a.643.643,0,0,1-.643-.643V226.641a.643.643,0,0,1,1.286,0v10.287A.643.643,0,0,1,249.948,237.571Z" transform="translate(-249.305 -225.998)" fill="#bac2c7"/>
          </g>
        </g>
      </g>
    </g>
  </g>
</svg>
