<svg xmlns="http://www.w3.org/2000/svg" width="30" height="30" viewBox="0 0 30 30">
  <g id="Group_2016" data-name="Group 2016" transform="translate(-819 -149)">
    <circle id="Ellipse_155" data-name="Ellipse 155" cx="15" cy="15" r="15" transform="translate(819 149)" fill="#202945"/>
    <path id="Path_157" data-name="Path 157" d="M37.8,30.116a.858.858,0,0,0-1.213,0l-2.63,2.629-2.629-2.629a.858.858,0,1,0-1.214,1.213l2.63,2.63-2.63,2.629A.858.858,0,0,0,31.329,37.8l2.63-2.63,2.63,2.63A.858.858,0,1,0,37.8,36.587l-2.63-2.629,2.63-2.629a.858.858,0,0,0,0-1.213" transform="translate(800.137 130.136)" fill="#fff"/>
  </g>
</svg>
