<svg xmlns="http://www.w3.org/2000/svg" width="15.876" height="12.116" viewBox="0 0 15.876 12.116">
  <g id="Human_Take_Over" data-name="Human Take Over" transform="translate(-2.337 -13.7)">
    <g id="Group_1178" data-name="Group 1178" transform="translate(2.337 13.7)">
      <path id="Path_506" data-name="Path 506" d="M18.168,18.823a.661.661,0,0,0-.851-.384l-.1.033a11.519,11.519,0,0,1-1.836.517L14.513,15.8a2.859,2.859,0,0,0-2.754-2.1H8.789a2.874,2.874,0,0,0-2.754,2.1L5.168,18.99a10.387,10.387,0,0,1-1.836-.517l-.1-.033a.66.66,0,0,0-.467,1.235l.1.033a12.284,12.284,0,0,0,4.306.784h6.191a12.284,12.284,0,0,0,4.306-.784l.1-.033A.649.649,0,0,0,18.168,18.823Zm-10.981.35c-.234,0-.467-.017-.7-.033l.818-3A1.537,1.537,0,0,1,8.789,15h3a1.552,1.552,0,0,1,1.485,1.135l.818,3c-.234.017-.467.033-.7.033Z" transform="translate(-2.337 -13.7)" fill="#202945"/>
      <path id="Path_507" data-name="Path 507" d="M27.127,59.1a2.279,2.279,0,0,0-2.1,1.419,3.48,3.48,0,0,0-1.552,0,2.27,2.27,0,1,0,.117,1.318,2.165,2.165,0,0,1,1.3,0,2.269,2.269,0,0,0,4.489-.467A2.247,2.247,0,0,0,27.127,59.1Zm-5.741,3.238a.951.951,0,1,1,.951-.951A.951.951,0,0,1,21.386,62.338Zm5.741,0a.951.951,0,1,1,.951-.951A.951.951,0,0,1,27.127,62.338Z" transform="translate(-16.303 -51.524)" fill="#202945"/>
    </g>
  </g>
</svg>
