<svg xmlns="http://www.w3.org/2000/svg" width="10.946" height="10.967" viewBox="0 0 10.946 10.967">
  <path id="Icon_feather-phone-call" data-name="Icon feather-phone-call" d="M13.113,9.737v1.5a1,1,0,0,1-1.09,1A9.9,9.9,0,0,1,7.708,10.7a9.751,9.751,0,0,1-3-3A9.9,9.9,0,0,1,3.172,3.366a1,1,0,0,1,1-1.09h1.5a1,1,0,0,1,1,.86,6.421,6.421,0,0,0,.35,1.405A1,1,0,0,1,6.792,5.6l-.635.635a8,8,0,0,0,3,3L9.793,8.6a1,1,0,0,1,1.055-.225,6.421,6.421,0,0,0,1.405.35A1,1,0,0,1,13.113,9.737Z" transform="translate(-2.668 -1.776)" fill="none" stroke="#fff" stroke-linecap="round" stroke-linejoin="round" stroke-width="1"/>
</svg>
