<svg id="re-simulate" xmlns="http://www.w3.org/2000/svg" width="13.373" height="13.374" viewBox="0 0 13.373 13.374">
  <path id="Path_563" data-name="Path 563" d="M36.7,29.989h0a.692.692,0,0,0-.691.692,5.287,5.287,0,1,1-1.281-3.459H32.779a.692.692,0,0,0,0,1.383h3.228a.692.692,0,0,0,.692-.692V24.686a.692.692,0,1,0-1.383,0v1.152a6.686,6.686,0,1,0-8.446,10.32,6.637,6.637,0,0,0,3.821,1.211,6.772,6.772,0,0,0,1.175-.1,6.687,6.687,0,0,0,5.525-6.585A.692.692,0,0,0,36.7,29.989Z" transform="translate(-24.018 -23.994)" fill="#fff"/>
</svg>
