<svg id="home" xmlns="http://www.w3.org/2000/svg" width="20" height="20" viewBox="0 0 20 20">
  <path id="Path_21" data-name="Path 21" d="M0,0H20V20H0Z" fill="none"/>
  <path id="Path_22" data-name="Path 22" d="M12.275,17.787H17.84V9.419L11.348,4.37,4.855,9.419v8.368H10.42V12.222h1.855Zm7.42.928a.928.928,0,0,1-.928.928H3.928A.928.928,0,0,1,3,18.715V8.966a.928.928,0,0,1,.358-.733l7.42-5.771a.928.928,0,0,1,1.139,0l7.42,5.771a.928.928,0,0,1,.358.733Z" transform="translate(-1.348 -1.26)" fill="#202945"/>
</svg>
