<svg xmlns="http://www.w3.org/2000/svg" width="20.314" height="20" viewBox="0 0 20.314 20">
  <g id="target_audience" data-name="target audience" transform="translate(0.157)">
    <path id="Path_25" data-name="Path 25" d="M0,0H20V20H0Z" fill="none"/>
    <g id="noun_group_2162156" transform="translate(-1 -2)">
      <g id="Group_8" data-name="Group 8" transform="translate(1 5)">
        <path id="Path_27" data-name="Path 27" d="M24.286,21.752C23.6,20.029,21.621,19,19,19s-4.6,1.029-5.285,2.752a12.62,12.62,0,0,0-.707,2.478.667.667,0,0,0,1.317.207,11.437,11.437,0,0,1,.627-2.189c.71-1.776,3.277-1.914,4.047-1.914s3.337.138,4.048,1.915a11.462,11.462,0,0,1,.627,2.189.667.667,0,0,0,.658.563.69.69,0,0,0,.1-.008.666.666,0,0,0,.555-.761A12.644,12.644,0,0,0,24.286,21.752Z" transform="translate(-5 -9.667)" fill="#202945" stroke="#202945" stroke-width="0.3"/>
        <path id="Path_28" data-name="Path 28" d="M20,13a4,4,0,1,0-4-4A4,4,0,0,0,20,13Zm0-6.667A2.667,2.667,0,1,1,17.333,9,2.669,2.669,0,0,1,20,6.333Z" transform="translate(-6 -5)" fill="#202945" stroke="#202945" stroke-width="0.3"/>
        <path id="Path_29" data-name="Path 29" d="M8.695,19.761A5.547,5.547,0,0,0,5.73,19c-2.063,0-3.624.821-4.175,2.2a9.715,9.715,0,0,0-.547,1.923.667.667,0,0,0,.555.761.7.7,0,0,0,.1.008.668.668,0,0,0,.658-.563,8.621,8.621,0,0,1,.468-1.633c.5-1.261,2.375-1.359,2.937-1.359a4.206,4.206,0,0,1,2.24.546.666.666,0,1,0,.725-1.119Z" transform="translate(-1 -9.667)" fill="#202945" stroke="#202945" stroke-width="0.3"/>
        <path id="Path_30" data-name="Path 30" d="M6.492,14.413a3.206,3.206,0,1,0-3.207-3.206A3.21,3.21,0,0,0,6.492,14.413Zm0-5.079a1.873,1.873,0,1,1-1.873,1.873A1.875,1.875,0,0,1,6.492,9.333Z" transform="translate(-1.762 -6)" fill="#202945" stroke="#202945" stroke-width="0.3"/>
      </g>
    </g>
  </g>
</svg>
