<svg xmlns="http://www.w3.org/2000/svg" width="186.033" height="164.487" viewBox="0 0 186.033 164.487">
  <g id="blue" transform="translate(9892.527 7214)">
    <g id="Group_1931" data-name="Group 1931" transform="translate(-9892.527 -7214)">
      <circle id="Ellipse_173" data-name="Ellipse 173" cx="0.033" cy="0.033" r="0.033" transform="translate(35.54 0.114)"/>
      <circle id="Ellipse_174" data-name="Ellipse 174" cx="0.082" cy="0.082" r="0.082" transform="translate(41.395 0.065)"/>
      <path id="Path_5388" data-name="Path 5388" d="M58.853,26.5a.131.131,0,1,0-.131-.131A.131.131,0,0,0,58.853,26.5Z" transform="translate(-11.472 -26.222)"/>
      <path id="Path_5389" data-name="Path 5389" d="M65.917,26.514a.147.147,0,1,0-.148-.148A.147.147,0,0,0,65.917,26.514Z" transform="translate(-12.631 -26.219)"/>
      <path id="Path_5390" data-name="Path 5390" d="M72.987,26.5a.131.131,0,1,0-.131-.131A.131.131,0,0,0,72.987,26.5Z" transform="translate(-13.797 -26.222)"/>
      <path id="Path_5391" data-name="Path 5391" d="M80.061,26.474a.1.1,0,1,0-.1-.1A.1.1,0,0,0,80.061,26.474Z" transform="translate(-14.966 -26.229)"/>
      <circle id="Ellipse_175" data-name="Ellipse 175" cx="0.049" cy="0.049" r="0.049" transform="translate(70.949 0.098)"/>
      <circle id="Ellipse_176" data-name="Ellipse 176" cx="0.049" cy="0.049" r="0.049" transform="translate(23.715 6.002)"/>
      <circle id="Ellipse_177" data-name="Ellipse 177" cx="0.147" cy="0.147" r="0.147" transform="translate(29.521 5.904)"/>
      <path id="Path_5392" data-name="Path 5392" d="M44.69,33.685a.278.278,0,1,0-.278-.278A.278.278,0,0,0,44.69,33.685Z" transform="translate(-9.117 -27.356)"/>
      <path id="Path_5393" data-name="Path 5393" d="M51.741,33.751a.36.36,0,1,0-.36-.36A.36.36,0,0,0,51.741,33.751Z" transform="translate(-10.264 -27.34)"/>
      <path id="Path_5394" data-name="Path 5394" d="M58.8,33.791a.409.409,0,1,0-.409-.409A.41.41,0,0,0,58.8,33.791Z" transform="translate(-11.417 -27.33)"/>
      <path id="Path_5395" data-name="Path 5395" d="M65.862,33.8a.426.426,0,1,0-.426-.426A.426.426,0,0,0,65.862,33.8Z" transform="translate(-12.576 -27.327)"/>
      <path id="Path_5396" data-name="Path 5396" d="M72.932,33.791a.409.409,0,1,0-.409-.409A.41.41,0,0,0,72.932,33.791Z" transform="translate(-13.742 -27.33)"/>
      <path id="Path_5397" data-name="Path 5397" d="M80.009,33.751a.36.36,0,1,0-.36-.36A.36.36,0,0,0,80.009,33.751Z" transform="translate(-14.915 -27.34)"/>
      <path id="Path_5398" data-name="Path 5398" d="M87.092,33.685a.278.278,0,1,0-.278-.278A.278.278,0,0,0,87.092,33.685Z" transform="translate(-16.094 -27.356)"/>
      <path id="Path_5399" data-name="Path 5399" d="M94.182,33.593a.164.164,0,1,0-.164-.164A.164.164,0,0,0,94.182,33.593Z" transform="translate(-17.279 -27.379)"/>
      <circle id="Ellipse_178" data-name="Ellipse 178" cx="0.049" cy="0.049" r="0.049" transform="translate(82.757 6.002)"/>
      <circle id="Ellipse_179" data-name="Ellipse 179" cx="0.082" cy="0.082" r="0.082" transform="translate(17.778 11.874)"/>
      <path id="Path_5400" data-name="Path 5400" d="M30.563,40.726a.246.246,0,1,0-.246-.246A.245.245,0,0,0,30.563,40.726Z" transform="translate(-6.798 -28.525)"/>
      <circle id="Ellipse_180" data-name="Ellipse 180" cx="0.409" cy="0.409" r="0.409" transform="translate(29.259 11.546)"/>
      <circle id="Ellipse_181" data-name="Ellipse 181" cx="0.54" cy="0.54" r="0.54" transform="translate(35.032 11.415)"/>
      <path id="Path_5401" data-name="Path 5401" d="M51.686,41.042a.639.639,0,1,0-.639-.639A.639.639,0,0,0,51.686,41.042Z" transform="translate(-10.209 -28.448)"/>
      <path id="Path_5402" data-name="Path 5402" d="M58.74,41.095a.7.7,0,1,0-.7-.7A.7.7,0,0,0,58.74,41.095Z" transform="translate(-11.359 -28.435)"/>
      <path id="Path_5403" data-name="Path 5403" d="M65.8,41.108a.721.721,0,1,0-.721-.721A.721.721,0,0,0,65.8,41.108Z" transform="translate(-12.518 -28.432)"/>
      <path id="Path_5404" data-name="Path 5404" d="M72.874,41.095a.7.7,0,1,0-.7-.7A.7.7,0,0,0,72.874,41.095Z" transform="translate(-13.684 -28.435)"/>
      <path id="Path_5405" data-name="Path 5405" d="M79.954,41.042a.639.639,0,1,0-.639-.639A.639.639,0,0,0,79.954,41.042Z" transform="translate(-14.86 -28.448)"/>
      <circle id="Ellipse_182" data-name="Ellipse 182" cx="0.54" cy="0.54" r="0.54" transform="translate(70.458 11.415)"/>
      <circle id="Ellipse_183" data-name="Ellipse 183" cx="0.426" cy="0.426" r="0.426" transform="translate(76.477 11.53)"/>
      <path id="Path_5406" data-name="Path 5406" d="M101.229,40.74a.262.262,0,1,0-.262-.262A.262.262,0,0,0,101.229,40.74Z" transform="translate(-18.423 -28.522)"/>
      <circle id="Ellipse_184" data-name="Ellipse 184" cx="0.098" cy="0.098" r="0.098" transform="translate(88.612 11.857)"/>
      <circle id="Ellipse_185" data-name="Ellipse 185" cx="0.082" cy="0.082" r="0.082" transform="translate(11.874 17.778)"/>
      <path id="Path_5407" data-name="Path 5407" d="M23.489,47.819a.278.278,0,1,0-.278-.278A.278.278,0,0,0,23.489,47.819Z" transform="translate(-5.629 -29.682)"/>
      <circle id="Ellipse_186" data-name="Ellipse 186" cx="0.475" cy="0.475" r="0.475" transform="translate(23.29 17.385)"/>
      <path id="Path_5408" data-name="Path 5408" d="M37.549,48.122a.655.655,0,1,0-.655-.655A.656.656,0,0,0,37.549,48.122Z" transform="translate(-7.88 -29.607)"/>
      <path id="Path_5409" data-name="Path 5409" d="M44.587,48.241a.8.8,0,1,0-.8-.8A.8.8,0,0,0,44.587,48.241Z" transform="translate(-9.014 -29.578)"/>
      <circle id="Ellipse_187" data-name="Ellipse 187" cx="0.917" cy="0.917" r="0.917" transform="translate(40.56 16.943)"/>
      <circle id="Ellipse_188" data-name="Ellipse 188" cx="0.982" cy="0.982" r="0.982" transform="translate(46.399 16.877)"/>
      <path id="Path_5410" data-name="Path 5410" d="M65.746,48.411A1.015,1.015,0,1,0,64.731,47.4,1.015,1.015,0,0,0,65.746,48.411Z" transform="translate(-12.46 -29.536)"/>
      <path id="Path_5411" data-name="Path 5411" d="M72.82,48.385a.983.983,0,1,0-.983-.982A.982.982,0,0,0,72.82,48.385Z" transform="translate(-13.63 -29.543)"/>
      <path id="Path_5412" data-name="Path 5412" d="M79.9,48.333a.917.917,0,1,0-.917-.917A.917.917,0,0,0,79.9,48.333Z" transform="translate(-14.805 -29.556)"/>
      <path id="Path_5413" data-name="Path 5413" d="M86.989,48.241a.8.8,0,1,0-.8-.8A.8.8,0,0,0,86.989,48.241Z" transform="translate(-15.991 -29.578)"/>
      <path id="Path_5414" data-name="Path 5414" d="M94.082,48.136a.671.671,0,1,0-.672-.672A.672.672,0,0,0,94.082,48.136Z" transform="translate(-17.179 -29.604)"/>
      <circle id="Ellipse_189" data-name="Ellipse 189" cx="0.508" cy="0.508" r="0.508" transform="translate(82.299 17.352)"/>
      <path id="Path_5415" data-name="Path 5415" d="M108.287,47.846a.311.311,0,1,0-.312-.312A.311.311,0,0,0,108.287,47.846Z" transform="translate(-19.576 -29.675)"/>
      <circle id="Ellipse_190" data-name="Ellipse 190" cx="0.098" cy="0.098" r="0.098" transform="translate(94.517 17.762)"/>
      <circle id="Ellipse_191" data-name="Ellipse 191" cx="0.049" cy="0.049" r="0.049" transform="translate(6.003 23.715)"/>
      <path id="Path_5416" data-name="Path 5416" d="M16.429,54.86a.246.246,0,1,0-.246-.246A.245.245,0,0,0,16.429,54.86Z" transform="translate(-4.472 -30.851)"/>
      <circle id="Ellipse_192" data-name="Ellipse 192" cx="0.475" cy="0.475" r="0.475" transform="translate(17.385 23.289)"/>
      <path id="Path_5417" data-name="Path 5417" d="M30.476,55.215a.688.688,0,1,0-.688-.688A.688.688,0,0,0,30.476,55.215Z" transform="translate(-6.711 -30.764)"/>
      <circle id="Ellipse_193" data-name="Ellipse 193" cx="0.884" cy="0.884" r="0.884" transform="translate(28.784 22.88)"/>
      <path id="Path_5418" data-name="Path 5418" d="M44.538,55.5a1.048,1.048,0,1,0-1.049-1.048A1.048,1.048,0,0,0,44.538,55.5Z" transform="translate(-8.965 -30.693)"/>
      <path id="Path_5419" data-name="Path 5419" d="M51.58,55.61A1.179,1.179,0,1,0,50.4,54.431,1.179,1.179,0,0,0,51.58,55.61Z" transform="translate(-10.103 -30.667)"/>
      <path id="Path_5420" data-name="Path 5420" d="M58.631,55.675a1.261,1.261,0,1,0-1.261-1.261A1.261,1.261,0,0,0,58.631,55.675Z" transform="translate(-11.249 -30.651)"/>
      <path id="Path_5421" data-name="Path 5421" d="M65.691,55.7A1.293,1.293,0,1,0,64.4,54.408,1.293,1.293,0,0,0,65.691,55.7Z" transform="translate(-12.406 -30.644)"/>
      <path id="Path_5422" data-name="Path 5422" d="M72.765,55.675A1.261,1.261,0,1,0,71.5,54.415,1.261,1.261,0,0,0,72.765,55.675Z" transform="translate(-13.575 -30.651)"/>
      <path id="Path_5423" data-name="Path 5423" d="M79.845,55.623a1.2,1.2,0,1,0-1.2-1.2A1.2,1.2,0,0,0,79.845,55.623Z" transform="translate(-14.75 -30.664)"/>
      <path id="Path_5424" data-name="Path 5424" d="M86.937,55.518a1.064,1.064,0,1,0-1.064-1.064A1.064,1.064,0,0,0,86.937,55.518Z" transform="translate(-15.939 -30.69)"/>
      <circle id="Ellipse_194" data-name="Ellipse 194" cx="0.9" cy="0.9" r="0.9" transform="translate(76.002 22.864)"/>
      <path id="Path_5425" data-name="Path 5425" d="M101.139,55.242a.721.721,0,1,0-.721-.721A.721.721,0,0,0,101.139,55.242Z" transform="translate(-18.332 -30.757)"/>
      <circle id="Ellipse_195" data-name="Ellipse 195" cx="0.508" cy="0.508" r="0.508" transform="translate(88.203 23.256)"/>
      <path id="Path_5426" data-name="Path 5426" d="M115.36,54.886a.278.278,0,1,0-.278-.278A.278.278,0,0,0,115.36,54.886Z" transform="translate(-20.745 -30.844)"/>
      <circle id="Ellipse_196" data-name="Ellipse 196" cx="0.066" cy="0.066" r="0.066" transform="translate(100.454 23.699)"/>
      <path id="Path_5427" data-name="Path 5427" d="M9.381,61.849a.147.147,0,1,0-.148-.148A.147.147,0,0,0,9.381,61.849Z" transform="translate(-3.329 -32.033)"/>
      <path id="Path_5428" data-name="Path 5428" d="M16.4,62.059a.409.409,0,1,0-.409-.409A.409.409,0,0,0,16.4,62.059Z" transform="translate(-4.44 -31.981)"/>
      <path id="Path_5429" data-name="Path 5429" d="M23.415,62.256a.655.655,0,1,0-.655-.655A.656.656,0,0,0,23.415,62.256Z" transform="translate(-5.555 -31.933)"/>
      <path id="Path_5430" data-name="Path 5430" d="M30.437,62.441a.884.884,0,1,0-.885-.885A.884.884,0,0,0,30.437,62.441Z" transform="translate(-6.672 -31.888)"/>
      <path id="Path_5431" data-name="Path 5431" d="M37.462,62.611a1.1,1.1,0,1,0-1.1-1.1A1.1,1.1,0,0,0,37.462,62.611Z" transform="translate(-7.793 -31.846)"/>
      <path id="Path_5432" data-name="Path 5432" d="M44.49,62.769A1.293,1.293,0,1,0,43.2,61.475,1.293,1.293,0,0,0,44.49,62.769Z" transform="translate(-8.917 -31.807)"/>
      <circle id="Ellipse_197" data-name="Ellipse 197" cx="1.441" cy="1.441" r="1.441" transform="translate(40.036 28.227)"/>
      <path id="Path_5433" data-name="Path 5433" d="M58.576,62.966a1.539,1.539,0,1,0-1.539-1.539A1.539,1.539,0,0,0,58.576,62.966Z" transform="translate(-11.194 -31.759)"/>
      <path id="Path_5434" data-name="Path 5434" d="M65.633,63.005a1.588,1.588,0,1,0-1.588-1.588A1.588,1.588,0,0,0,65.633,63.005Z" transform="translate(-12.348 -31.749)"/>
      <path id="Path_5435" data-name="Path 5435" d="M72.707,62.979a1.555,1.555,0,1,0-1.556-1.556A1.555,1.555,0,0,0,72.707,62.979Z" transform="translate(-13.517 -31.756)"/>
      <circle id="Ellipse_198" data-name="Ellipse 198" cx="1.457" cy="1.457" r="1.457" transform="translate(63.637 28.211)"/>
      <path id="Path_5436" data-name="Path 5436" d="M86.889,62.782a1.31,1.31,0,1,0-1.31-1.31A1.31,1.31,0,0,0,86.889,62.782Z" transform="translate(-15.891 -31.804)"/>
      <path id="Path_5437" data-name="Path 5437" d="M93.995,62.625a1.113,1.113,0,1,0-1.114-1.114A1.113,1.113,0,0,0,93.995,62.625Z" transform="translate(-17.092 -31.843)"/>
      <path id="Path_5438" data-name="Path 5438" d="M101.1,62.453a.9.9,0,1,0-.9-.9A.9.9,0,0,0,101.1,62.453Z" transform="translate(-18.297 -31.885)"/>
      <path id="Path_5439" data-name="Path 5439" d="M108.216,62.27a.671.671,0,1,0-.672-.672A.672.672,0,0,0,108.216,62.27Z" transform="translate(-19.505 -31.93)"/>
      <circle id="Ellipse_199" data-name="Ellipse 199" cx="0.426" cy="0.426" r="0.426" transform="translate(94.189 29.243)"/>
      <path id="Path_5440" data-name="Path 5440" d="M122.446,61.875a.18.18,0,1,0-.18-.18A.18.18,0,0,0,122.446,61.875Z" transform="translate(-21.927 -32.027)"/>
      <circle id="Ellipse_200" data-name="Ellipse 200" cx="0.016" cy="0.016" r="0.016" transform="translate(106.407 29.652)"/>
      <path id="Path_5441" data-name="Path 5441" d="M2.336,68.823a.033.033,0,0,0,.033-.033.033.033,0,0,0-.066,0A.033.033,0,0,0,2.336,68.823Z" transform="translate(-2.189 -33.218)"/>
      <path id="Path_5442" data-name="Path 5442" d="M9.355,69.02a.278.278,0,1,0-.278-.278A.278.278,0,0,0,9.355,69.02Z" transform="translate(-3.303 -33.17)"/>
      <path id="Path_5443" data-name="Path 5443" d="M16.371,69.231a.54.54,0,1,0-.541-.541A.54.54,0,0,0,16.371,69.231Z" transform="translate(-4.414 -33.118)"/>
      <path id="Path_5444" data-name="Path 5444" d="M23.386,69.442a.8.8,0,1,0-.8-.8A.8.8,0,0,0,23.386,69.442Z" transform="translate(-5.525 -33.067)"/>
      <path id="Path_5445" data-name="Path 5445" d="M30.4,69.638a1.048,1.048,0,1,0-1.049-1.048A1.048,1.048,0,0,0,30.4,69.638Z" transform="translate(-6.64 -33.018)"/>
      <path id="Path_5446" data-name="Path 5446" d="M37.423,69.836a1.293,1.293,0,1,0-1.293-1.293A1.293,1.293,0,0,0,37.423,69.836Z" transform="translate(-7.754 -32.97)"/>
      <path id="Path_5447" data-name="Path 5447" d="M44.448,70.007A1.506,1.506,0,1,0,42.942,68.5,1.506,1.506,0,0,0,44.448,70.007Z" transform="translate(-8.875 -32.928)"/>
      <path id="Path_5448" data-name="Path 5448" d="M51.48,70.152a1.686,1.686,0,1,0-1.687-1.687A1.687,1.687,0,0,0,51.48,70.152Z" transform="translate(-10.003 -32.893)"/>
      <path id="Path_5449" data-name="Path 5449" d="M58.521,70.257A1.818,1.818,0,1,0,56.7,68.439,1.818,1.818,0,0,0,58.521,70.257Z" transform="translate(-11.139 -32.867)"/>
      <path id="Path_5450" data-name="Path 5450" d="M65.578,70.3a1.866,1.866,0,1,0-1.866-1.866A1.866,1.866,0,0,0,65.578,70.3Z" transform="translate(-12.293 -32.857)"/>
      <path id="Path_5451" data-name="Path 5451" d="M72.652,70.27a1.834,1.834,0,1,0-1.834-1.834A1.833,1.833,0,0,0,72.652,70.27Z" transform="translate(-13.462 -32.864)"/>
      <path id="Path_5452" data-name="Path 5452" d="M79.745,70.164a1.7,1.7,0,1,0-1.7-1.7A1.7,1.7,0,0,0,79.745,70.164Z" transform="translate(-14.651 -32.889)"/>
      <path id="Path_5453" data-name="Path 5453" d="M86.847,70.02A1.523,1.523,0,1,0,85.324,68.5,1.523,1.523,0,0,0,86.847,70.02Z" transform="translate(-15.849 -32.925)"/>
      <path id="Path_5454" data-name="Path 5454" d="M93.956,69.849a1.31,1.31,0,1,0-1.31-1.31A1.309,1.309,0,0,0,93.956,69.849Z" transform="translate(-17.054 -32.967)"/>
      <path id="Path_5455" data-name="Path 5455" d="M101.068,69.665a1.081,1.081,0,1,0-1.081-1.081A1.081,1.081,0,0,0,101.068,69.665Z" transform="translate(-18.261 -33.012)"/>
      <path id="Path_5456" data-name="Path 5456" d="M108.187,69.455a.819.819,0,1,0-.819-.819A.819.819,0,0,0,108.187,69.455Z" transform="translate(-19.476 -33.063)"/>
      <path id="Path_5457" data-name="Path 5457" d="M115.305,69.245a.557.557,0,1,0-.557-.557A.557.557,0,0,0,115.305,69.245Z" transform="translate(-20.69 -33.115)"/>
      <path id="Path_5458" data-name="Path 5458" d="M122.424,69.034a.295.295,0,1,0-.295-.295A.294.294,0,0,0,122.424,69.034Z" transform="translate(-21.905 -33.167)"/>
      <path id="Path_5459" data-name="Path 5459" d="M129.539,68.837a.049.049,0,1,0,0-.1.049.049,0,1,0,0,.1Z" transform="translate(-23.116 -33.215)"/>
      <path id="Path_5460" data-name="Path 5460" d="M2.327,75.93a.082.082,0,1,0-.082-.082A.082.082,0,0,0,2.327,75.93Z" transform="translate(-2.179 -34.371)"/>
      <path id="Path_5461" data-name="Path 5461" d="M9.339,76.153a.36.36,0,1,0-.36-.36A.36.36,0,0,0,9.339,76.153Z" transform="translate(-3.287 -34.317)"/>
      <path id="Path_5462" data-name="Path 5462" d="M16.351,76.377a.639.639,0,1,0-.639-.639A.639.639,0,0,0,16.351,76.377Z" transform="translate(-4.395 -34.262)"/>
      <path id="Path_5463" data-name="Path 5463" d="M23.363,76.6a.917.917,0,1,0-.917-.917A.917.917,0,0,0,23.363,76.6Z" transform="translate(-5.503 -34.207)"/>
      <path id="Path_5464" data-name="Path 5464" d="M30.379,76.811A1.179,1.179,0,1,0,29.2,75.632,1.179,1.179,0,0,0,30.379,76.811Z" transform="translate(-6.614 -34.155)"/>
      <circle id="Ellipse_201" data-name="Ellipse 201" cx="1.441" cy="1.441" r="1.441" transform="translate(28.228 40.036)"/>
      <path id="Path_5465" data-name="Path 5465" d="M44.413,77.219a1.686,1.686,0,1,0-1.687-1.687A1.687,1.687,0,0,0,44.413,77.219Z" transform="translate(-8.84 -34.055)"/>
      <circle id="Ellipse_202" data-name="Ellipse 202" cx="1.916" cy="1.916" r="1.916" transform="translate(39.561 39.561)"/>
      <path id="Path_5466" data-name="Path 5466" d="M58.469,77.534a2.079,2.079,0,1,0-2.079-2.079A2.079,2.079,0,0,0,58.469,77.534Z" transform="translate(-11.088 -33.978)"/>
      <path id="Path_5467" data-name="Path 5467" d="M65.52,77.6a2.161,2.161,0,1,0-2.161-2.161A2.161,2.161,0,0,0,65.52,77.6Z" transform="translate(-12.235 -33.962)"/>
      <path id="Path_5468" data-name="Path 5468" d="M72.6,77.548a2.1,2.1,0,1,0-2.1-2.1A2.1,2.1,0,0,0,72.6,77.548Z" transform="translate(-13.41 -33.975)"/>
      <path id="Path_5469" data-name="Path 5469" d="M79.7,77.416a1.932,1.932,0,1,0-1.932-1.932A1.932,1.932,0,0,0,79.7,77.416Z" transform="translate(-14.605 -34.007)"/>
      <path id="Path_5470" data-name="Path 5470" d="M86.808,77.245a1.719,1.719,0,1,0-1.719-1.719A1.719,1.719,0,0,0,86.808,77.245Z" transform="translate(-15.81 -34.049)"/>
      <path id="Path_5471" data-name="Path 5471" d="M93.924,77.048a1.473,1.473,0,1,0-1.474-1.474A1.473,1.473,0,0,0,93.924,77.048Z" transform="translate(-17.021 -34.097)"/>
      <path id="Path_5472" data-name="Path 5472" d="M101.046,76.824a1.2,1.2,0,1,0-1.2-1.2A1.2,1.2,0,0,0,101.046,76.824Z" transform="translate(-18.239 -34.152)"/>
      <path id="Path_5473" data-name="Path 5473" d="M108.164,76.613a.933.933,0,1,0-.933-.933A.933.933,0,0,0,108.164,76.613Z" transform="translate(-19.453 -34.204)"/>
      <path id="Path_5474" data-name="Path 5474" d="M115.283,76.4a.671.671,0,1,0-.672-.672A.672.672,0,0,0,115.283,76.4Z" transform="translate(-20.668 -34.255)"/>
      <path id="Path_5475" data-name="Path 5475" d="M122.408,76.167a.376.376,0,1,0-.377-.377A.376.376,0,0,0,122.408,76.167Z" transform="translate(-21.888 -34.314)"/>
      <path id="Path_5476" data-name="Path 5476" d="M129.526,75.956a.114.114,0,1,0-.114-.114A.115.115,0,0,0,129.526,75.956Z" transform="translate(-23.103 -34.365)"/>
      <path id="Path_5477" data-name="Path 5477" d="M2.317,83.036a.131.131,0,1,0-.131-.131A.131.131,0,0,0,2.317,83.036Z" transform="translate(-2.169 -35.525)"/>
      <path id="Path_5478" data-name="Path 5478" d="M9.329,83.26a.409.409,0,1,0-.409-.409A.409.409,0,0,0,9.329,83.26Z" transform="translate(-3.277 -35.47)"/>
      <path id="Path_5479" data-name="Path 5479" d="M16.338,83.5a.7.7,0,1,0-.7-.7A.7.7,0,0,0,16.338,83.5Z" transform="translate(-4.382 -35.412)"/>
      <circle id="Ellipse_203" data-name="Ellipse 203" cx="0.982" cy="0.982" r="0.982" transform="translate(16.878 46.399)"/>
      <path id="Path_5480" data-name="Path 5480" d="M30.363,83.943A1.261,1.261,0,1,0,29.1,82.683,1.26,1.26,0,0,0,30.363,83.943Z" transform="translate(-6.598 -35.302)"/>
      <path id="Path_5481" data-name="Path 5481" d="M37.375,84.167a1.539,1.539,0,1,0-1.539-1.539A1.539,1.539,0,0,0,37.375,84.167Z" transform="translate(-7.706 -35.247)"/>
      <path id="Path_5482" data-name="Path 5482" d="M44.387,84.391a1.818,1.818,0,1,0-1.818-1.818A1.818,1.818,0,0,0,44.387,84.391Z" transform="translate(-8.814 -35.192)"/>
      <path id="Path_5483" data-name="Path 5483" d="M51.4,84.6a2.079,2.079,0,1,0-2.079-2.079A2.079,2.079,0,0,0,51.4,84.6Z" transform="translate(-9.925 -35.141)"/>
      <path id="Path_5484" data-name="Path 5484" d="M58.421,84.8A2.325,2.325,0,1,0,56.1,82.473,2.324,2.324,0,0,0,58.421,84.8Z" transform="translate(-11.04 -35.093)"/>
      <path id="Path_5485" data-name="Path 5485" d="M65.466,84.89a2.44,2.44,0,1,0-2.44-2.44A2.439,2.439,0,0,0,65.466,84.89Z" transform="translate(-12.18 -35.07)"/>
      <path id="Path_5486" data-name="Path 5486" d="M72.555,84.8a2.325,2.325,0,1,0-2.325-2.325A2.324,2.324,0,0,0,72.555,84.8Z" transform="translate(-13.365 -35.093)"/>
      <path id="Path_5487" data-name="Path 5487" d="M79.664,84.627a2.112,2.112,0,1,0-2.112-2.112A2.112,2.112,0,0,0,79.664,84.627Z" transform="translate(-14.57 -35.134)"/>
      <path id="Path_5488" data-name="Path 5488" d="M86.783,84.417a1.85,1.85,0,1,0-1.851-1.851A1.85,1.85,0,0,0,86.783,84.417Z" transform="translate(-15.784 -35.186)"/>
      <path id="Path_5489" data-name="Path 5489" d="M93.9,84.194a1.572,1.572,0,1,0-1.572-1.572A1.572,1.572,0,0,0,93.9,84.194Z" transform="translate(-17.002 -35.241)"/>
      <path id="Path_5490" data-name="Path 5490" d="M101.026,83.97a1.293,1.293,0,1,0-1.293-1.293A1.293,1.293,0,0,0,101.026,83.97Z" transform="translate(-18.22 -35.296)"/>
      <path id="Path_5491" data-name="Path 5491" d="M108.148,83.746a1.015,1.015,0,1,0-1.015-1.015A1.015,1.015,0,0,0,108.148,83.746Z" transform="translate(-19.437 -35.35)"/>
      <path id="Path_5492" data-name="Path 5492" d="M115.273,83.51a.721.721,0,1,0-.721-.721A.72.72,0,0,0,115.273,83.51Z" transform="translate(-20.658 -35.409)"/>
      <circle id="Ellipse_204" data-name="Ellipse 204" cx="0.442" cy="0.442" r="0.442" transform="translate(100.077 46.939)"/>
      <path id="Path_5493" data-name="Path 5493" d="M129.517,83.063a.164.164,0,1,0-.164-.164A.163.163,0,0,0,129.517,83.063Z" transform="translate(-23.093 -35.518)"/>
      <path id="Path_5494" data-name="Path 5494" d="M2.314,90.117a.147.147,0,1,0-.148-.148A.147.147,0,0,0,2.314,90.117Z" transform="translate(-2.166 -36.684)"/>
      <circle id="Ellipse_205" data-name="Ellipse 205" cx="0.426" cy="0.426" r="0.426" transform="translate(5.626 52.859)"/>
      <path id="Path_5495" data-name="Path 5495" d="M16.335,90.577a.721.721,0,1,0-.721-.721A.72.72,0,0,0,16.335,90.577Z" transform="translate(-4.379 -36.571)"/>
      <circle id="Ellipse_206" data-name="Ellipse 206" cx="1.015" cy="1.015" r="1.015" transform="translate(16.845 52.27)"/>
      <path id="Path_5496" data-name="Path 5496" d="M30.356,91.037a1.293,1.293,0,1,0-1.293-1.293A1.293,1.293,0,0,0,30.356,91.037Z" transform="translate(-6.592 -36.458)"/>
      <path id="Path_5497" data-name="Path 5497" d="M37.365,91.273a1.588,1.588,0,1,0-1.588-1.588A1.589,1.589,0,0,0,37.365,91.273Z" transform="translate(-7.696 -36.4)"/>
      <circle id="Ellipse_207" data-name="Ellipse 207" cx="1.866" cy="1.866" r="1.866" transform="translate(33.706 51.419)"/>
      <path id="Path_5498" data-name="Path 5498" d="M51.386,91.734a2.161,2.161,0,1,0-2.161-2.161A2.161,2.161,0,0,0,51.386,91.734Z" transform="translate(-9.909 -36.288)"/>
      <circle id="Ellipse_208" data-name="Ellipse 208" cx="2.439" cy="2.439" r="2.439" transform="translate(44.942 50.846)"/>
      <path id="Path_5499" data-name="Path 5499" d="M65.427,92.115a2.636,2.636,0,1,0-2.636-2.636A2.636,2.636,0,0,0,65.427,92.115Z" transform="translate(-12.141 -36.194)"/>
      <path id="Path_5500" data-name="Path 5500" d="M72.529,91.971a2.456,2.456,0,1,0-2.456-2.456A2.456,2.456,0,0,0,72.529,91.971Z" transform="translate(-13.339 -36.23)"/>
      <path id="Path_5501" data-name="Path 5501" d="M79.651,91.747a2.178,2.178,0,1,0-2.178-2.178A2.178,2.178,0,0,0,79.651,91.747Z" transform="translate(-14.557 -36.284)"/>
      <circle id="Ellipse_209" data-name="Ellipse 209" cx="1.899" cy="1.899" r="1.899" transform="translate(69.099 51.386)"/>
      <path id="Path_5502" data-name="Path 5502" d="M93.9,91.287a1.6,1.6,0,1,0-1.6-1.6A1.6,1.6,0,0,0,93.9,91.287Z" transform="translate(-16.995 -36.397)"/>
      <path id="Path_5503" data-name="Path 5503" d="M101.02,91.064a1.326,1.326,0,1,0-1.327-1.327A1.327,1.327,0,0,0,101.02,91.064Z" transform="translate(-18.213 -36.452)"/>
      <path id="Path_5504" data-name="Path 5504" d="M108.145,90.827a1.031,1.031,0,1,0-1.032-1.032A1.032,1.032,0,0,0,108.145,90.827Z" transform="translate(-19.434 -36.51)"/>
      <path id="Path_5505" data-name="Path 5505" d="M115.267,90.6a.753.753,0,1,0-.754-.754A.754.754,0,0,0,115.267,90.6Z" transform="translate(-20.651 -36.565)"/>
      <circle id="Ellipse_210" data-name="Ellipse 210" cx="0.458" cy="0.458" r="0.458" transform="translate(100.061 52.827)"/>
      <path id="Path_5506" data-name="Path 5506" d="M129.513,90.143a.18.18,0,1,0-.18-.18A.18.18,0,0,0,129.513,90.143Z" transform="translate(-23.09 -36.678)"/>
      <path id="Path_5507" data-name="Path 5507" d="M2.317,97.17a.131.131,0,1,0-.131-.131A.131.131,0,0,0,2.317,97.17Z" transform="translate(-2.169 -37.85)"/>
      <circle id="Ellipse_211" data-name="Ellipse 211" cx="0.409" cy="0.409" r="0.409" transform="translate(5.642 58.78)"/>
      <path id="Path_5508" data-name="Path 5508" d="M16.338,97.631a.7.7,0,1,0-.7-.7A.7.7,0,0,0,16.338,97.631Z" transform="translate(-4.382 -37.737)"/>
      <circle id="Ellipse_212" data-name="Ellipse 212" cx="0.982" cy="0.982" r="0.982" transform="translate(16.878 58.207)"/>
      <path id="Path_5509" data-name="Path 5509" d="M30.363,98.077A1.261,1.261,0,1,0,29.1,96.817,1.26,1.26,0,0,0,30.363,98.077Z" transform="translate(-6.598 -37.628)"/>
      <path id="Path_5510" data-name="Path 5510" d="M37.372,98.314a1.555,1.555,0,1,0-1.556-1.556A1.555,1.555,0,0,0,37.372,98.314Z" transform="translate(-7.703 -37.57)"/>
      <circle id="Ellipse_213" data-name="Ellipse 213" cx="1.834" cy="1.834" r="1.834" transform="translate(33.739 57.356)"/>
      <path id="Path_5511" data-name="Path 5511" d="M51.4,98.748a2.1,2.1,0,1,0-2.1-2.1A2.1,2.1,0,0,0,51.4,98.748Z" transform="translate(-9.922 -37.463)"/>
      <path id="Path_5512" data-name="Path 5512" d="M58.421,98.932A2.325,2.325,0,1,0,56.1,96.607,2.324,2.324,0,0,0,58.421,98.932Z" transform="translate(-11.04 -37.418)"/>
      <path id="Path_5513" data-name="Path 5513" d="M65.462,99.038a2.456,2.456,0,1,0-2.456-2.456A2.456,2.456,0,0,0,65.462,99.038Z" transform="translate(-12.177 -37.392)"/>
      <path id="Path_5514" data-name="Path 5514" d="M72.549,98.958A2.358,2.358,0,1,0,70.191,96.6,2.358,2.358,0,0,0,72.549,98.958Z" transform="translate(-13.359 -37.412)"/>
      <path id="Path_5515" data-name="Path 5515" d="M79.664,98.761a2.112,2.112,0,1,0-2.112-2.112A2.112,2.112,0,0,0,79.664,98.761Z" transform="translate(-14.57 -37.46)"/>
      <circle id="Ellipse_214" data-name="Ellipse 214" cx="1.85" cy="1.85" r="1.85" transform="translate(69.148 57.339)"/>
      <path id="Path_5516" data-name="Path 5516" d="M93.9,98.328a1.572,1.572,0,1,0-1.572-1.572A1.572,1.572,0,0,0,93.9,98.328Z" transform="translate(-17.002 -37.566)"/>
      <path id="Path_5517" data-name="Path 5517" d="M101.026,98.1a1.293,1.293,0,1,0-1.293-1.293A1.293,1.293,0,0,0,101.026,98.1Z" transform="translate(-18.22 -37.621)"/>
      <circle id="Ellipse_215" data-name="Ellipse 215" cx="1.015" cy="1.015" r="1.015" transform="translate(87.696 58.174)"/>
      <path id="Path_5518" data-name="Path 5518" d="M115.27,97.657a.737.737,0,1,0-.737-.737A.736.736,0,0,0,115.27,97.657Z" transform="translate(-20.655 -37.731)"/>
      <circle id="Ellipse_216" data-name="Ellipse 216" cx="0.442" cy="0.442" r="0.442" transform="translate(100.077 58.747)"/>
      <path id="Path_5519" data-name="Path 5519" d="M129.517,97.2a.164.164,0,1,0-.164-.164A.163.163,0,0,0,129.517,97.2Z" transform="translate(-23.093 -37.844)"/>
      <circle id="Ellipse_217" data-name="Ellipse 217" cx="0.098" cy="0.098" r="0.098" transform="translate(0.049 64.995)"/>
      <circle id="Ellipse_218" data-name="Ellipse 218" cx="0.36" cy="0.36" r="0.36" transform="translate(5.692 64.733)"/>
      <path id="Path_5520" data-name="Path 5520" d="M16.351,104.645a.639.639,0,1,0-.639-.639A.639.639,0,0,0,16.351,104.645Z" transform="translate(-4.395 -38.913)"/>
      <circle id="Ellipse_219" data-name="Ellipse 219" cx="0.917" cy="0.917" r="0.917" transform="translate(16.943 64.177)"/>
      <path id="Path_5521" data-name="Path 5521" d="M30.376,105.092a1.2,1.2,0,1,0-1.2-1.2A1.2,1.2,0,0,0,30.376,105.092Z" transform="translate(-6.611 -38.803)"/>
      <circle id="Ellipse_220" data-name="Ellipse 220" cx="1.457" cy="1.457" r="1.457" transform="translate(28.211 63.636)"/>
      <path id="Path_5522" data-name="Path 5522" d="M44.41,105.5a1.7,1.7,0,1,0-1.7-1.7A1.7,1.7,0,0,0,44.41,105.5Z" transform="translate(-8.837 -38.703)"/>
      <circle id="Ellipse_221" data-name="Ellipse 221" cx="1.932" cy="1.932" r="1.932" transform="translate(39.545 63.162)"/>
      <path id="Path_5523" data-name="Path 5523" d="M58.463,105.828a2.112,2.112,0,1,0-2.112-2.112A2.112,2.112,0,0,0,58.463,105.828Z" transform="translate(-11.082 -38.623)"/>
      <path id="Path_5524" data-name="Path 5524" d="M65.517,105.881a2.178,2.178,0,1,0-2.178-2.178A2.178,2.178,0,0,0,65.517,105.881Z" transform="translate(-12.231 -38.61)"/>
      <path id="Path_5525" data-name="Path 5525" d="M72.6,105.828a2.112,2.112,0,1,0-2.112-2.112A2.112,2.112,0,0,0,72.6,105.828Z" transform="translate(-13.407 -38.623)"/>
      <circle id="Ellipse_222" data-name="Ellipse 222" cx="1.948" cy="1.948" r="1.948" transform="translate(63.146 63.145)"/>
      <path id="Path_5526" data-name="Path 5526" d="M86.808,105.513a1.719,1.719,0,1,0-1.719-1.719A1.719,1.719,0,0,0,86.808,105.513Z" transform="translate(-15.81 -38.7)"/>
      <circle id="Ellipse_223" data-name="Ellipse 223" cx="1.474" cy="1.474" r="1.474" transform="translate(75.429 63.62)"/>
      <path id="Path_5527" data-name="Path 5527" d="M101.042,105.1a1.211,1.211,0,1,0-1.211-1.211A1.211,1.211,0,0,0,101.042,105.1Z" transform="translate(-18.236 -38.8)"/>
      <circle id="Ellipse_224" data-name="Ellipse 224" cx="0.95" cy="0.95" r="0.95" transform="translate(87.761 64.144)"/>
      <path id="Path_5528" data-name="Path 5528" d="M115.283,104.672a.671.671,0,1,0-.672-.672A.672.672,0,0,0,115.283,104.672Z" transform="translate(-20.668 -38.907)"/>
      <circle id="Ellipse_225" data-name="Ellipse 225" cx="0.393" cy="0.393" r="0.393" transform="translate(100.126 64.701)"/>
      <circle id="Ellipse_226" data-name="Ellipse 226" cx="0.115" cy="0.115" r="0.115" transform="translate(106.309 64.979)"/>
      <circle id="Ellipse_227" data-name="Ellipse 227" cx="0.049" cy="0.049" r="0.049" transform="translate(0.098 70.949)"/>
      <path id="Path_5529" data-name="Path 5529" d="M9.355,111.422a.278.278,0,1,0-.278-.278A.278.278,0,0,0,9.355,111.422Z" transform="translate(-3.303 -40.147)"/>
      <circle id="Ellipse_228" data-name="Ellipse 228" cx="0.54" cy="0.54" r="0.54" transform="translate(11.416 70.457)"/>
      <circle id="Ellipse_229" data-name="Ellipse 229" cx="0.802" cy="0.802" r="0.802" transform="translate(17.058 70.196)"/>
      <circle id="Ellipse_230" data-name="Ellipse 230" cx="1.064" cy="1.064" r="1.064" transform="translate(22.7 69.934)"/>
      <circle id="Ellipse_231" data-name="Ellipse 231" cx="1.31" cy="1.31" r="1.31" transform="translate(28.359 69.688)"/>
      <circle id="Ellipse_232" data-name="Ellipse 232" cx="1.523" cy="1.523" r="1.523" transform="translate(34.05 69.475)"/>
      <path id="Path_5530" data-name="Path 5530" d="M51.473,112.58a1.719,1.719,0,1,0-1.719-1.719A1.719,1.719,0,0,0,51.473,112.58Z" transform="translate(-9.996 -39.863)"/>
      <path id="Path_5531" data-name="Path 5531" d="M58.515,112.685a1.85,1.85,0,1,0-1.851-1.851A1.85,1.85,0,0,0,58.515,112.685Z" transform="translate(-11.133 -39.837)"/>
      <circle id="Ellipse_233" data-name="Ellipse 233" cx="1.899" cy="1.899" r="1.899" transform="translate(51.386 69.099)"/>
      <path id="Path_5532" data-name="Path 5532" d="M72.649,112.685a1.85,1.85,0,1,0-1.851-1.851A1.85,1.85,0,0,0,72.649,112.685Z" transform="translate(-13.459 -39.837)"/>
      <path id="Path_5533" data-name="Path 5533" d="M79.741,112.58a1.719,1.719,0,1,0-1.719-1.719A1.719,1.719,0,0,0,79.741,112.58Z" transform="translate(-14.647 -39.863)"/>
      <path id="Path_5534" data-name="Path 5534" d="M86.841,112.448a1.555,1.555,0,1,0-1.556-1.556A1.555,1.555,0,0,0,86.841,112.448Z" transform="translate(-15.842 -39.895)"/>
      <path id="Path_5535" data-name="Path 5535" d="M93.953,112.265a1.326,1.326,0,1,0-1.327-1.327A1.327,1.327,0,0,0,93.953,112.265Z" transform="translate(-17.05 -39.94)"/>
      <path id="Path_5536" data-name="Path 5536" d="M101.065,112.08a1.1,1.1,0,1,0-1.1-1.1A1.1,1.1,0,0,0,101.065,112.08Z" transform="translate(-18.258 -39.985)"/>
      <circle id="Ellipse_234" data-name="Ellipse 234" cx="0.835" cy="0.835" r="0.835" transform="translate(87.876 70.163)"/>
      <circle id="Ellipse_235" data-name="Ellipse 235" cx="0.573" cy="0.573" r="0.573" transform="translate(94.042 70.425)"/>
      <path id="Path_5537" data-name="Path 5537" d="M122.421,111.449a.311.311,0,1,0-.312-.312A.311.311,0,0,0,122.421,111.449Z" transform="translate(-21.901 -40.14)"/>
      <circle id="Ellipse_236" data-name="Ellipse 236" cx="0.049" cy="0.049" r="0.049" transform="translate(106.374 70.949)"/>
      <circle id="Ellipse_237" data-name="Ellipse 237" cx="0.164" cy="0.164" r="0.164" transform="translate(5.888 76.738)"/>
      <circle id="Ellipse_238" data-name="Ellipse 238" cx="0.426" cy="0.426" r="0.426" transform="translate(11.53 76.476)"/>
      <circle id="Ellipse_239" data-name="Ellipse 239" cx="0.671" cy="0.671" r="0.671" transform="translate(17.189 76.231)"/>
      <circle id="Ellipse_240" data-name="Ellipse 240" cx="0.9" cy="0.9" r="0.9" transform="translate(22.864 76.001)"/>
      <path id="Path_5538" data-name="Path 5538" d="M37.459,119.16a1.113,1.113,0,1,0-1.114-1.114A1.113,1.113,0,0,0,37.459,119.16Z" transform="translate(-7.79 -41.145)"/>
      <path id="Path_5539" data-name="Path 5539" d="M44.487,119.318a1.31,1.31,0,1,0-1.31-1.31A1.31,1.31,0,0,0,44.487,119.318Z" transform="translate(-8.914 -41.106)"/>
      <circle id="Ellipse_241" data-name="Ellipse 241" cx="1.474" cy="1.474" r="1.474" transform="translate(40.003 75.428)"/>
      <path id="Path_5540" data-name="Path 5540" d="M58.569,119.529A1.572,1.572,0,1,0,57,117.956,1.572,1.572,0,0,0,58.569,119.529Z" transform="translate(-11.188 -41.055)"/>
      <path id="Path_5541" data-name="Path 5541" d="M65.63,119.555a1.6,1.6,0,1,0-1.6-1.6A1.6,1.6,0,0,0,65.63,119.555Z" transform="translate(-12.344 -41.048)"/>
      <path id="Path_5542" data-name="Path 5542" d="M72.7,119.529a1.572,1.572,0,1,0-1.572-1.572A1.572,1.572,0,0,0,72.7,119.529Z" transform="translate(-13.513 -41.055)"/>
      <path id="Path_5543" data-name="Path 5543" d="M79.79,119.45a1.473,1.473,0,1,0-1.474-1.474A1.473,1.473,0,0,0,79.79,119.45Z" transform="translate(-14.696 -41.074)"/>
      <path id="Path_5544" data-name="Path 5544" d="M86.886,119.332A1.326,1.326,0,1,0,85.559,118,1.327,1.327,0,0,0,86.886,119.332Z" transform="translate(-15.887 -41.103)"/>
      <path id="Path_5545" data-name="Path 5545" d="M93.988,119.187a1.146,1.146,0,1,0-1.146-1.146A1.146,1.146,0,0,0,93.988,119.187Z" transform="translate(-17.086 -41.139)"/>
      <circle id="Ellipse_242" data-name="Ellipse 242" cx="0.917" cy="0.917" r="0.917" transform="translate(81.89 75.985)"/>
      <path id="Path_5546" data-name="Path 5546" d="M108.213,118.818a.688.688,0,1,0-.688-.688A.688.688,0,0,0,108.213,118.818Z" transform="translate(-19.502 -41.229)"/>
      <circle id="Ellipse_243" data-name="Ellipse 243" cx="0.458" cy="0.458" r="0.458" transform="translate(94.156 76.443)"/>
      <path id="Path_5547" data-name="Path 5547" d="M122.443,118.424a.2.2,0,1,0-.2-.2A.2.2,0,0,0,122.443,118.424Z" transform="translate(-21.924 -41.326)"/>
      <circle id="Ellipse_244" data-name="Ellipse 244" cx="0.016" cy="0.016" r="0.016" transform="translate(106.407 76.886)"/>
      <circle id="Ellipse_245" data-name="Ellipse 245" cx="0.049" cy="0.049" r="0.049" transform="translate(6.003 82.757)"/>
      <circle id="Ellipse_246" data-name="Ellipse 246" cx="0.262" cy="0.262" r="0.262" transform="translate(11.694 82.544)"/>
      <circle id="Ellipse_247" data-name="Ellipse 247" cx="0.508" cy="0.508" r="0.508" transform="translate(17.353 82.299)"/>
      <path id="Path_5548" data-name="Path 5548" d="M30.469,125.912a.721.721,0,1,0-.721-.721A.72.72,0,0,0,30.469,125.912Z" transform="translate(-6.704 -42.385)"/>
      <circle id="Ellipse_248" data-name="Ellipse 248" cx="0.9" cy="0.9" r="0.9" transform="translate(28.768 81.906)"/>
      <path id="Path_5549" data-name="Path 5549" d="M44.532,126.2a1.081,1.081,0,1,0-1.081-1.081A1.081,1.081,0,0,0,44.532,126.2Z" transform="translate(-8.959 -42.314)"/>
      <path id="Path_5550" data-name="Path 5550" d="M51.577,126.293a1.2,1.2,0,1,0-1.2-1.2A1.2,1.2,0,0,0,51.577,126.293Z" transform="translate(-10.099 -42.292)"/>
      <path id="Path_5551" data-name="Path 5551" d="M58.624,126.372a1.293,1.293,0,1,0-1.293-1.293A1.293,1.293,0,0,0,58.624,126.372Z" transform="translate(-11.243 -42.272)"/>
      <path id="Path_5552" data-name="Path 5552" d="M65.685,126.4a1.326,1.326,0,1,0-1.327-1.327A1.327,1.327,0,0,0,65.685,126.4Z" transform="translate(-12.399 -42.266)"/>
      <path id="Path_5553" data-name="Path 5553" d="M72.758,126.372a1.293,1.293,0,1,0-1.293-1.293A1.293,1.293,0,0,0,72.758,126.372Z" transform="translate(-13.568 -42.272)"/>
      <path id="Path_5554" data-name="Path 5554" d="M79.841,126.306a1.211,1.211,0,1,0-1.211-1.211A1.211,1.211,0,0,0,79.841,126.306Z" transform="translate(-14.747 -42.289)"/>
      <path id="Path_5555" data-name="Path 5555" d="M86.931,126.214a1.1,1.1,0,1,0-1.1-1.1A1.1,1.1,0,0,0,86.931,126.214Z" transform="translate(-15.933 -42.311)"/>
      <circle id="Ellipse_249" data-name="Ellipse 249" cx="0.917" cy="0.917" r="0.917" transform="translate(75.985 81.889)"/>
      <path id="Path_5556" data-name="Path 5556" d="M101.136,125.925a.736.736,0,1,0-.737-.737A.736.736,0,0,0,101.136,125.925Z" transform="translate(-18.329 -42.382)"/>
      <circle id="Ellipse_250" data-name="Ellipse 250" cx="0.524" cy="0.524" r="0.524" transform="translate(88.187 82.282)"/>
      <circle id="Ellipse_251" data-name="Ellipse 251" cx="0.295" cy="0.295" r="0.295" transform="translate(94.32 82.511)"/>
      <circle id="Ellipse_252" data-name="Ellipse 252" cx="0.066" cy="0.066" r="0.066" transform="translate(100.454 82.741)"/>
      <circle id="Ellipse_253" data-name="Ellipse 253" cx="0.098" cy="0.098" r="0.098" transform="translate(11.858 88.612)"/>
      <circle id="Ellipse_254" data-name="Ellipse 254" cx="0.311" cy="0.311" r="0.311" transform="translate(17.549 88.399)"/>
      <circle id="Ellipse_255" data-name="Ellipse 255" cx="0.508" cy="0.508" r="0.508" transform="translate(23.257 88.203)"/>
      <path id="Path_5557" data-name="Path 5557" d="M37.546,132.94a.671.671,0,1,0-.672-.672A.672.672,0,0,0,37.546,132.94Z" transform="translate(-7.877 -43.558)"/>
      <path id="Path_5558" data-name="Path 5558" d="M44.584,133.058a.818.818,0,1,0-.819-.819A.819.819,0,0,0,44.584,133.058Z" transform="translate(-9.011 -43.529)"/>
      <circle id="Ellipse_256" data-name="Ellipse 256" cx="0.933" cy="0.933" r="0.933" transform="translate(40.544 87.777)"/>
      <circle id="Ellipse_257" data-name="Ellipse 257" cx="1.015" cy="1.015" r="1.015" transform="translate(46.366 87.695)"/>
      <path id="Path_5559" data-name="Path 5559" d="M65.743,133.229a1.031,1.031,0,1,0-1.032-1.032A1.032,1.032,0,0,0,65.743,133.229Z" transform="translate(-12.457 -43.487)"/>
      <path id="Path_5560" data-name="Path 5560" d="M72.813,133.215A1.015,1.015,0,1,0,71.8,132.2,1.015,1.015,0,0,0,72.813,133.215Z" transform="translate(-13.623 -43.49)"/>
      <circle id="Ellipse_258" data-name="Ellipse 258" cx="0.95" cy="0.95" r="0.95" transform="translate(64.144 87.761)"/>
      <path id="Path_5561" data-name="Path 5561" d="M86.982,133.071a.835.835,0,1,0-.835-.835A.835.835,0,0,0,86.982,133.071Z" transform="translate(-15.984 -43.526)"/>
      <path id="Path_5562" data-name="Path 5562" d="M94.079,132.952a.688.688,0,1,0-.688-.688A.688.688,0,0,0,94.079,132.952Z" transform="translate(-17.176 -43.555)"/>
      <circle id="Ellipse_259" data-name="Ellipse 259" cx="0.524" cy="0.524" r="0.524" transform="translate(82.283 88.186)"/>
      <circle id="Ellipse_260" data-name="Ellipse 260" cx="0.327" cy="0.327" r="0.327" transform="translate(88.383 88.383)"/>
      <circle id="Ellipse_261" data-name="Ellipse 261" cx="0.115" cy="0.115" r="0.115" transform="translate(94.5 88.596)"/>
      <circle id="Ellipse_262" data-name="Ellipse 262" cx="0.098" cy="0.098" r="0.098" transform="translate(17.762 94.516)"/>
      <path id="Path_5563" data-name="Path 5563" d="M30.556,139.691a.279.279,0,1,0-.278-.279A.279.279,0,0,0,30.556,139.691Z" transform="translate(-6.792 -44.798)"/>
      <circle id="Ellipse_263" data-name="Ellipse 263" cx="0.426" cy="0.426" r="0.426" transform="translate(29.243 94.189)"/>
      <circle id="Ellipse_264" data-name="Ellipse 264" cx="0.557" cy="0.557" r="0.557" transform="translate(35.016 94.058)"/>
      <path id="Path_5564" data-name="Path 5564" d="M51.68,140.007a.671.671,0,1,0-.672-.672A.672.672,0,0,0,51.68,140.007Z" transform="translate(-10.202 -44.721)"/>
      <path id="Path_5565" data-name="Path 5565" d="M58.737,140.046a.721.721,0,1,0-.721-.721A.72.72,0,0,0,58.737,140.046Z" transform="translate(-11.356 -44.711)"/>
      <path id="Path_5566" data-name="Path 5566" d="M65.8,140.072a.753.753,0,1,0-.754-.754A.753.753,0,0,0,65.8,140.072Z" transform="translate(-12.512 -44.704)"/>
      <path id="Path_5567" data-name="Path 5567" d="M72.868,140.059a.736.736,0,1,0-.737-.737A.736.736,0,0,0,72.868,140.059Z" transform="translate(-13.678 -44.708)"/>
      <path id="Path_5568" data-name="Path 5568" d="M79.948,140.007a.671.671,0,1,0-.672-.672A.672.672,0,0,0,79.948,140.007Z" transform="translate(-14.854 -44.721)"/>
      <path id="Path_5569" data-name="Path 5569" d="M87.034,139.927a.573.573,0,1,0-.573-.573A.572.572,0,0,0,87.034,139.927Z" transform="translate(-16.036 -44.74)"/>
      <circle id="Ellipse_265" data-name="Ellipse 265" cx="0.458" cy="0.458" r="0.458" transform="translate(76.444 94.156)"/>
      <path id="Path_5570" data-name="Path 5570" d="M101.223,139.7a.295.295,0,1,0-.295-.295A.295.295,0,0,0,101.223,139.7Z" transform="translate(-18.416 -44.795)"/>
      <circle id="Ellipse_266" data-name="Ellipse 266" cx="0.115" cy="0.115" r="0.115" transform="translate(88.596 94.5)"/>
      <circle id="Ellipse_267" data-name="Ellipse 267" cx="0.016" cy="0.016" r="0.016" transform="translate(94.598 94.598)"/>
      <circle id="Ellipse_268" data-name="Ellipse 268" cx="0.066" cy="0.066" r="0.066" transform="translate(23.699 100.453)"/>
      <path id="Path_5571" data-name="Path 5571" d="M37.642,146.679a.18.18,0,1,0-.18-.18A.18.18,0,0,0,37.642,146.679Z" transform="translate(-7.974 -45.98)"/>
      <path id="Path_5572" data-name="Path 5572" d="M44.687,146.771a.294.294,0,1,0-.295-.295A.295.295,0,0,0,44.687,146.771Z" transform="translate(-9.114 -45.958)"/>
      <path id="Path_5573" data-name="Path 5573" d="M51.738,146.837a.376.376,0,1,0-.377-.377A.376.376,0,0,0,51.738,146.837Z" transform="translate(-10.26 -45.941)"/>
      <circle id="Ellipse_269" data-name="Ellipse 269" cx="0.442" cy="0.442" r="0.442" transform="translate(46.939 100.077)"/>
      <circle id="Ellipse_270" data-name="Ellipse 270" cx="0.458" cy="0.458" r="0.458" transform="translate(52.827 100.06)"/>
      <path id="Path_5574" data-name="Path 5574" d="M72.926,146.889a.442.442,0,1,0-.442-.442A.442.442,0,0,0,72.926,146.889Z" transform="translate(-13.736 -45.928)"/>
      <path id="Path_5575" data-name="Path 5575" d="M80,146.85a.393.393,0,1,0-.394-.393A.393.393,0,0,0,80,146.85Z" transform="translate(-14.908 -45.938)"/>
      <path id="Path_5576" data-name="Path 5576" d="M87.086,146.784a.311.311,0,1,0-.312-.312A.311.311,0,0,0,87.086,146.784Z" transform="translate(-16.087 -45.954)"/>
      <path id="Path_5577" data-name="Path 5577" d="M94.175,146.693a.2.2,0,1,0-.2-.2A.2.2,0,0,0,94.175,146.693Z" transform="translate(-17.273 -45.977)"/>
      <circle id="Ellipse_271" data-name="Ellipse 271" cx="0.066" cy="0.066" r="0.066" transform="translate(82.741 100.453)"/>
      <circle id="Ellipse_272" data-name="Ellipse 272" cx="0.016" cy="0.016" r="0.016" transform="translate(29.652 106.407)"/>
      <circle id="Ellipse_273" data-name="Ellipse 273" cx="0.049" cy="0.049" r="0.049" transform="translate(35.524 106.374)"/>
      <path id="Path_5578" data-name="Path 5578" d="M51.789,153.694a.115.115,0,1,0-.114-.115A.115.115,0,0,0,51.789,153.694Z" transform="translate(-10.312 -47.156)"/>
      <path id="Path_5579" data-name="Path 5579" d="M58.847,153.732a.164.164,0,1,0-.164-.164A.163.163,0,0,0,58.847,153.732Z" transform="translate(-11.465 -47.146)"/>
      <path id="Path_5580" data-name="Path 5580" d="M65.91,153.746a.18.18,0,1,0-.18-.18A.18.18,0,0,0,65.91,153.746Z" transform="translate(-12.625 -47.143)"/>
      <path id="Path_5581" data-name="Path 5581" d="M72.981,153.732a.164.164,0,1,0-.164-.164A.163.163,0,0,0,72.981,153.732Z" transform="translate(-13.791 -47.146)"/>
      <path id="Path_5582" data-name="Path 5582" d="M80.057,153.694a.115.115,0,1,0-.114-.115A.115.115,0,0,0,80.057,153.694Z" transform="translate(-14.963 -47.156)"/>
      <circle id="Ellipse_274" data-name="Ellipse 274" cx="0.049" cy="0.049" r="0.049" transform="translate(70.949 106.374)"/>
      <circle id="Ellipse_275" data-name="Ellipse 275" cx="0.016" cy="0.016" r="0.016" transform="translate(76.886 106.407)"/>
    </g>
    <g id="Group_1929" data-name="Group 1929" transform="translate(-9865.354 -7202.504)">
      <path id="Path_5387" data-name="Path 5387" d="M23.6.283S4.2-3.737.009,18.524C-.015,38.2-.018,83.856.363,87.417S1.5,95.368,3.588,98.491c4.668,6.975,13.862,7.9,22.63,7.957,32.473.2,38.931,1.793,38.931,1.793a71.219,71.219,0,0,0,9.689,11.138c6.258,5.931,12.873,9.222,16.913,9.259s.283-3.824-.38-8.885-1.107-9.433.189-10.359c.857-.615,1.49-.8,4.926-.893s5.775.526,8.817.526c5.095,0,5.731.019,8.211-.323.6-.082,3.859-1.012,7.112-6.119,2.226-3.495,5.548-11.245,7.7-17.648,2.23-6.648,3.987-12.515,6.548-21.97,4.669-15.824,5.662-20.06,5.008-24.129-1.022-6.354-5.579-11.444-8.908-12.432-.4-.118-.953-.278-1.543-.444C95.449,16.421,23.6.283,23.6.283Z" transform="translate(0 25.936) rotate(-9)" fill="#e3e7d9"/>
      <path id="Path_5385" data-name="Path 5385" d="M23.6.283S4.2-3.737.009,18.524C-.015,38.2-.018,83.856.363,87.417S1.5,95.368,3.588,98.491c4.668,6.975,13.862,7.9,22.63,7.957,32.473.2,38.931,1.793,38.931,1.793a71.219,71.219,0,0,0,9.689,11.138c6.258,5.931,12.873,9.222,16.913,9.259s.283-3.824-.38-8.885-1.107-9.433.189-10.359c.857-.615,1.49-.8,4.926-.893s5.775.526,8.817.526c5.095,0,5.731.019,8.211-.323.6-.082,3.859-1.012,7.112-6.119,2.226-3.495,5.548-11.245,7.7-17.648,2.23-6.648,3.987-12.515,6.548-21.97,4.669-15.824,5.662-20.06,5.008-24.129-1.022-6.354-5.579-11.444-8.908-12.432-.4-.118-.953-.278-1.543-.444C95.449,16.421,23.6.283,23.6.283Z" transform="translate(0.403 21.91) rotate(-9)" fill="#708bce"/>
      <path id="Path_5384" data-name="Path 5384" d="M24.7.9S3.932-5.543,0,16.026C-.021,35.093.553,78.9.91,82.351s2.251,7.183,4.21,10.209c4.376,6.758,14.614,6.122,22.832,6.174,30.441.191,36.494,1.737,36.494,1.737a72.53,72.53,0,0,0,9.921,12.4A65.016,65.016,0,0,0,85.5,121.721a29.451,29.451,0,0,1-1.81-9.251c-.066-2.319.6-10.163,1.81-11.06.8-.6,2.232-.356,3.158-.356h9.726a43.487,43.487,0,0,0,7.7-.312,12.833,12.833,0,0,0,8.379-5.966c4.311-7,7.429-19.849,13.906-35.066,5.791-14.981,5.928-18.865,5.314-22.808a14.481,14.481,0,0,0-9.124-11.064c-.373-.114-.893-.269-1.446-.43C91.254,16.163,24.7.9,24.7.9Z" transform="translate(3.22 22.887) rotate(-9)" fill="#1240ac"/>
      <path id="Path_5383" data-name="Path 5383" d="M-9785.014-7165.825s-20.191-6.266-24.014,14.707c-.021,18.538.537,61.134.884,64.49s2.189,6.984,4.095,9.926c4.255,6.571,14.209,5.954,22.2,6,29.6.186,35.484,1.689,35.484,1.689a70.516,70.516,0,0,0,9.646,12.058,63.233,63.233,0,0,0,10.819,8.6,28.638,28.638,0,0,1-1.76-9c-.063-2.255.578-9.882,1.76-10.754.781-.579,2.171-.347,3.071-.347h9.456a42.242,42.242,0,0,0,7.484-.3,12.478,12.478,0,0,0,8.148-5.8c4.191-6.8,7.223-19.3,13.521-34.1,5.631-14.567,5.765-18.343,5.167-22.177a14.081,14.081,0,0,0-8.871-10.758c-.363-.111-.869-.262-1.407-.418C-9720.3-7150.985-9785.014-7165.825-9785.014-7165.825Z" transform="translate(9815.471 7174.247)" fill="none" stroke="#000" stroke-width="2"/>
      <path id="Path_5386" data-name="Path 5386" d="M9.316-12.688c12.457,0,54.7.286,64.152,7.589,5.585,4.726.779,25.6-2.434,29.785-4.769,6.212-22.451,7.16-28.64,7.733A279.218,279.218,0,0,1,9.316,33.565,8.871,8.871,0,0,1,1.27,27.424C-1.623,18.68-6.965.1-3.429-8.392-1.521-12.977,3.683-12.688,9.316-12.688Z" transform="translate(28.122 49.629)" fill="#708bce"/>
    </g>
  </g>
</svg>
