<svg xmlns="http://www.w3.org/2000/svg" width="15.67" height="15.67" viewBox="0 0 15.67 15.67">
  <g id="Group_2020" data-name="Group 2020" transform="translate(-4.8 -957.162)">
    <path id="Path_560" data-name="Path 560" d="M12.635,5a7.635,7.635,0,1,0,7.635,7.635A7.643,7.643,0,0,0,12.635,5Zm0,1.018a6.617,6.617,0,1,1-6.617,6.617A6.609,6.609,0,0,1,12.635,6.018Zm0,2.375a2.553,2.553,0,0,0-2.545,2.545.509.509,0,1,0,1.018,0,1.527,1.527,0,1,1,3.054,0,1.716,1.716,0,0,1-.562,1.257,13.138,13.138,0,0,1-1.283,1.06.509.509,0,0,0-.191.4v.679a.509.509,0,1,0,1.018,0V13.9a9.511,9.511,0,0,0,1.2-1.007,2.816,2.816,0,0,0,.838-1.956A2.553,2.553,0,0,0,12.635,8.393Zm0,7.126a.679.679,0,1,0,.679.679A.679.679,0,0,0,12.635,15.519Z" transform="translate(0 952.362)" fill="#fff" stroke="#fff" stroke-width="0.4"/>
  </g>
</svg>
