<svg id="noun_Nothing_to_say_3459822" data-name="noun_Nothing to say_3459822" xmlns="http://www.w3.org/2000/svg" width="42.99" height="42.99" viewBox="0 0 42.99 42.99">
  <g id="Layer_2" data-name="Layer 2">
    <g id="Layer_1" data-name="Layer 1">
      <path id="Path_555" data-name="Path 555" d="M21.5,0a21.5,21.5,0,1,0,21.5,21.5A21.5,21.5,0,0,0,21.5,0Zm0,40.3A18.808,18.808,0,1,1,40.3,21.5,18.808,18.808,0,0,1,21.5,40.3Zm9.18-10.783a.9.9,0,0,1-.9.9H13.211a.9.9,0,1,1,0-1.791H29.78A.9.9,0,0,1,30.675,29.52Zm3.193-12.951a.9.9,0,0,1-.9.9H26.591a.9.9,0,0,1,0-1.791h6.381A.9.9,0,0,1,33.868,16.569Zm-17.465.9H10.022a.9.9,0,0,1,0-1.791H16.4a.9.9,0,0,1,0,1.791Z" fill="#bac2c7"/>
    </g>
  </g>
</svg>
