<svg xmlns="http://www.w3.org/2000/svg" width="22.321" height="27.154" viewBox="0 0 22.321 27.154">
  <g id="keys" transform="translate(-45.559)">
    <path id="Path_556" data-name="Path 556" d="M60.832,15.892v4.334a.4.4,0,1,0,.8,0V15.6a.4.4,0,0,0-.285-.382,4.5,4.5,0,0,1-2.286-1.587,4.423,4.423,0,0,1-.9-2.692,4.467,4.467,0,0,1,5.8-4.26A4.688,4.688,0,0,1,63.4,7.974a1.768,1.768,0,1,0,.628.5,5.485,5.485,0,0,0,.67-1.481,4.47,4.47,0,0,1,1.374,1.121.4.4,0,0,0,.616-.506,5.263,5.263,0,0,0-1.825-1.425,5.49,5.49,0,1,0-10.4,1.687,5.278,5.278,0,0,0-.2,5.577L50.612,17.1a.4.4,0,1,0,.564.564l3.88-3.88a.4.4,0,0,0,.05-.5A4.464,4.464,0,0,1,59.853,6.47,5.3,5.3,0,0,0,58.482,7.7a3.136,3.136,0,0,0-.215,6.2c.05.073.1.146.155.217a5.289,5.289,0,0,0,1.132,1.1,4.464,4.464,0,0,1-3.2-.684.4.4,0,0,0-.5.05L52.2,18.235a.4.4,0,0,0,0,.564l.863.863a.563.563,0,0,1-.8.8l-.863-.863a.4.4,0,0,0-.564,0l-1.034,1.034a.4.4,0,0,0,0,.564l.863.863a.563.563,0,1,1-.8.8l-.863-.863a.4.4,0,0,0-.564,0l-1.131,1.131a.563.563,0,1,1-.8-.8l3.529-3.529a.4.4,0,0,0-.564-.564l-3.529,3.529a1.36,1.36,0,0,0,1.923,1.923l.849-.849.582.582a1.36,1.36,0,0,0,1.923-1.923l-.582-.581.47-.47.582.581A1.36,1.36,0,1,0,53.627,19.1l-.582-.582,3.147-3.147a5.269,5.269,0,0,0,4.363.412c.091.039.183.077.277.11ZM62.648,8.6a.962.962,0,0,1,.251.034,4.687,4.687,0,0,1-1.215.963c0-.011,0-.021,0-.031A.967.967,0,0,1,62.648,8.6Zm.966.966a.965.965,0,0,1-1.577.747,5.483,5.483,0,0,0,1.478-1.17A.959.959,0,0,1,63.614,9.569ZM55.105,7.094c-.025.025-.048.051-.073.076a4.694,4.694,0,1,1,9.077-1.679c0,.135-.006.268-.018.4a5.273,5.273,0,0,0-3.2.083A5.28,5.28,0,0,0,55.105,7.094Zm2.767,1.583a5.218,5.218,0,0,0-.382,1.094,4.67,4.67,0,0,1-.575-.308,2.332,2.332,0,0,1,.957-.786Zm-.7,3.791a2.341,2.341,0,0,1-.6-2.281,5.455,5.455,0,0,0,.8.4c-.008.118-.012.237-.012.357a5.238,5.238,0,0,0,.368,1.937A2.337,2.337,0,0,1,57.171,12.468Z" transform="translate(0 0)" fill="#fff"/>
    <path id="Path_557" data-name="Path 557" d="M340.27,167a.4.4,0,0,0-.747.279,4.469,4.469,0,0,1-2.8,5.806.4.4,0,0,0-.275.379v2.213l-1.129.876a.4.4,0,0,0,0,.63l.877.68-.877.68a.4.4,0,0,0,0,.63l.877.68-.877.68a.4.4,0,0,0,0,.63l1.129.876V183l-1.1,1.086-1-1.077v-3.287a.4.4,0,0,0-.8,0v3.444a.4.4,0,0,0,.107.272l1.391,1.493a.4.4,0,0,0,.572.011l1.507-1.493a.4.4,0,0,0,.118-.283v-1.318a.4.4,0,0,0-.154-.315l-.877-.68.877-.68a.4.4,0,0,0,0-.63l-.877-.68.877-.68a.4.4,0,0,0,0-.63l-.877-.68.877-.68a.4.4,0,0,0,.154-.315v-2.128A5.267,5.267,0,0,0,340.27,167Z" transform="translate(-272.721 -157.898)" fill="#fff"/>
  </g>
</svg>
