<svg id="list-view" xmlns="http://www.w3.org/2000/svg" width="8.832" height="8.846" viewBox="0 0 8.832 8.846">
  <path id="Path_255" data-name="Path 255" d="M38.962,73.483h5.373a.263.263,0,0,0,.262-.262v-.459a.263.263,0,0,0-.262-.262H38.962a.263.263,0,0,0-.262.262v.459A.263.263,0,0,0,38.962,73.483Z" transform="translate(-35.765 -65.122)" fill="#8f9bb9"/>
  <path id="Path_256" data-name="Path 256" d="M38.962,47.183h5.373a.263.263,0,0,0,.262-.262v-.459a.263.263,0,0,0-.262-.262H38.962a.263.263,0,0,0-.262.262v.459a.263.263,0,0,0,.262.262Z" transform="translate(-35.765 -42.269)" fill="#8f9bb9"/>
  <path id="Path_257" data-name="Path 257" d="M38.962,20.983h5.373a.263.263,0,0,0,.262-.262v-.459A.263.263,0,0,0,44.335,20H38.962a.263.263,0,0,0-.262.262v.459a.263.263,0,0,0,.262.262Z" transform="translate(-35.765 -19.502)" fill="#8f9bb9"/>
  <circle id="Ellipse_84" data-name="Ellipse 84" cx="0.983" cy="0.983" r="0.983" transform="translate(0 6.88)" fill="#8f9bb9"/>
  <circle id="Ellipse_85" data-name="Ellipse 85" cx="0.983" cy="0.983" r="0.983" transform="translate(0 3.447)" fill="#8f9bb9"/>
  <circle id="Ellipse_86" data-name="Ellipse 86" cx="0.983" cy="0.983" r="0.983" fill="#8f9bb9"/>
</svg>
